<?xml version="1.0" encoding="UTF-8" standalone="no"?>
<!-- Created with Inkscape (http://www.inkscape.org/) -->

<svg
   version="1.1"
   id="svg89"
   width="2560"
   height="2236"
   viewBox="0 0 2560 2236"
   sodipodi:docname="under_construction.svg"
   inkscape:version="1.1.2 (b8e25be833, 2022-02-05)"
   xmlns:inkscape="http://www.inkscape.org/namespaces/inkscape"
   xmlns:sodipodi="http://sodipodi.sourceforge.net/DTD/sodipodi-0.dtd"
   xmlns="http://www.w3.org/2000/svg"
   xmlns:svg="http://www.w3.org/2000/svg">
  <defs
     id="defs93" />
  <sodipodi:namedview
     id="namedview91"
     pagecolor="#505050"
     bordercolor="#ffffff"
     borderopacity="1"
     inkscape:pageshadow="0"
     inkscape:pageopacity="0"
     inkscape:pagecheckerboard="1"
     showgrid="false"
     inkscape:zoom="0.1767767"
     inkscape:cx="1581.0908"
     inkscape:cy="1040.8612"
     inkscape:window-width="1366"
     inkscape:window-height="705"
     inkscape:window-x="-8"
     inkscape:window-y="-8"
     inkscape:window-maximized="1"
     inkscape:current-layer="g95" />
  <g
     inkscape:groupmode="layer"
     inkscape:label="Image"
     id="g95">
    <g
       id="g669"
       transform="translate(4.3474e-5)">
      <path
         style="fill:#ecd5d5;stroke-width:1.33333"
         d="m 130.51676,2235.4056 c -0.32689,-0.3268 -8.07689,-1.1736 -17.22222,-1.8816 C 67.461075,2229.9755 26.534,2206.2393 9.3727196,2173.2532 2.0996017,2159.2733 -0.6425834,2142.5229 0.54561203,2119.3333 2.2996747,2085.1 5.1729753,2074.2163 20.568132,2043.4908 29.893548,2024.8791 1152.7149,84.112523 1163.0933,68.666667 c 24.9918,-37.194538 59.3361,-62.8048217 89.5734,-66.7940401 11.9026,-1.57032509 39.9355,-1.4047577 51.4038,0.3036003 30.926,4.6068689 66.136,32.5101768 90.969,72.0913438 13.7245,21.875692 1138.6172,1954.297929 1146.2233,1969.065729 12.8385,24.927 18.7867,49.6491 18.75,77.9308 -0.016,12.6786 -2.3892,31.0886 -4.9588,38.4751 -7.9417,22.8281 -29.8199,46.3092 -54.8261,58.8427 -19.2158,9.6312 -32.2466,13.1386 -59.5612,16.0316 -9.2786,0.9828 -362.486,1.4084 -1161.4445,1.3993 -631.46109,-0.013 -1148.37855,-0.2803 -1148.70544,-0.6072 z M 2422,2228.0353 c 42.5165,-2.8262 67.752,-10.9762 93.6799,-30.2546 15.179,-11.2863 27.2468,-28.6734 33.1624,-47.7807 3.8298,-12.3703 3.4814,-47.9291 -0.6184,-63.1029 -3.5312,-13.0692 -9.0286,-27.2662 -15.6476,-40.4099 C 2525.4724,2032.3808 1393.0008,88.100363 1383.1791,73.147931 1369.5104,52.339367 1350.5073,33.579011 1332.1109,22.73206 1303.4416,5.8280167 1269.2344,2.9927807 1238.6667,14.987011 1213.9703,24.677429 1189.4978,45.848587 1171.4732,73.115973 1162.9262,86.045884 47.745952,2011.9984 33.098867,2039.1255 c -17.281298,32.0058 -23.7579917,53.366 -24.7243151,81.5412 -0.4939904,14.4033 -0.1417635,20.7898 1.5421913,27.9632 7.9011118,33.6566 35.0898698,58.7809 76.6546558,70.8338 16.053151,4.6551 32.603831,7.3126 52.761931,8.4718 25.87906,1.4882 2260.31137,1.586 2282.66667,0.1 z m -1950,-29.3781 -351.33333,-0.7005 -11.33334,-3.0174 C 103.1,2193.2797 91.788737,2188.8989 84.197195,2185.2041 54.9672,2170.978 39.993684,2147.7723 39.849193,2116.4745 39.77638,2100.7036 43.514163,2086.696 52.556332,2068.8537 59.106752,2055.9284 1190.1865,97.225491 1200.6622,80.666667 c 2.7836,-4.4 10.5234,-13.42246 17.1995,-20.049912 9.856,-9.784208 14.2693,-13.08223 23.4716,-17.540182 13.4889,-6.534472 22.7198,-8.845341 35.3334,-8.845341 29.9918,0 57.9814,17.451103 78.7544,49.102101 11.3322,17.266547 1145.7301,1971.777567 1154.6912,1989.475567 9.5192,18.8 12.9697,31.2483 12.858,46.3871 -0.099,13.3409 -1.9551,21.748 -7.1196,32.2385 -12.8282,26.0578 -41.0638,42.9142 -78.9632,47.1402 -13.2352,1.4758 -1240.2881,1.5273 -1964.8875,0.083 z"
         id="path683" />
      <path
         style="fill:#cfb2b2;stroke-width:1.33333"
         d="M 122,2234.4672 C 79.887604,2229.9052 45.385568,2215.3684 25.0632,2193.6247 12.041724,2179.6925 4.7826324,2165.3845 1.9156185,2148 -4.0132753,2112.0492 3.4790331,2076.5679 25.70648,2035.3333 38.028091,2012.4753 1154.4858,83.975147 1162.33,72 1198.8595,16.233164 1244.0029,-6.869894 1299.1136,1.9982921 1334.156,7.6371685 1366.3109,31.787343 1392.3179,72 c 13.1037,20.261272 1140.07,1956.176 1148.3609,1972.6667 9.7513,19.3953 14.8707,34.793 17.3621,52.2212 5.227,36.5629 -0.4797,65.1365 -17.3977,87.1121 -22.2888,28.9516 -56.4012,45.8681 -101.9765,50.5707 -17.2531,1.7801 -2300.21975,1.6782 -2316.6667,-0.104 z m 2329.5404,-8.1629 c 26.0007,-5.4231 46.8697,-14.2447 64.0188,-27.0616 15.8856,-11.8726 27.0295,-27.3947 33.4184,-46.5479 3.2631,-9.782 3.5711,-12.5156 3.6093,-32.0281 0.035,-18.0443 -0.4245,-23.0807 -2.9829,-32.6667 -4.1795,-15.6597 -12.3271,-35.62 -20.6819,-50.6667 C 2511.9363,2006.7423 1391.9864,84.667473 1384.3548,73.009913 1374.626,58.148547 1357.9809,39.948823 1345.3333,30.343837 1310.721,4.0580917 1267.9832,-0.54312012 1230,17.92688 c -6.6,3.209367 -15.9,8.796997 -20.6667,12.416957 -12.6197,9.583811 -29.4021,27.917328 -39.1154,42.730706 C 1155.3045,95.818199 34.569645,2033.3036 25.89768,2051.3333 c -14.517234,30.1827 -20.0387753,53.3848 -18.9406512,79.5908 1.2409551,29.6146 12.8111912,51.6674 36.1560802,68.9132 13.474939,9.9546 35.905043,19.5302 56.780542,24.2403 22.446599,5.0645 -6.804027,4.9483 1186.106349,4.7177 1081.3424,-0.2089 1155.3572,-0.367 1165.5404,-2.491 z M 134.43808,2197.3001 c -20.09111,-1.5329 -34.454833,-5.2706 -49.755632,-12.9473 -24.246097,-12.1648 -37.806117,-29.414 -42.953436,-54.6397 -3.499504,-17.1503 0.363059,-37.8046 11.082881,-59.2635 C 58.929273,2058.2039 1196.129,89.648071 1202.9493,79.498045 c 7.5507,-11.237154 24.0403,-27.147476 34.4164,-33.207489 37.3131,-21.792269 81.5146,-10.281589 110.7919,28.851783 4.9912,6.671572 243.3317,415.826411 576.5091,989.682661 312.4,538.0699 572.3345,985.8539 577.6324,995.0754 17.1561,29.862 22.8113,52.0035 18.5856,72.7663 -6.4563,31.7224 -30.2164,53.2224 -69.6132,62.9913 -8.7384,2.1668 -75.2335,2.3084 -1156.6048,2.4625 -631.03337,0.089 -1153.13623,-0.2792 -1160.22862,-0.8204 z M 2096,1922.1956 c 0,-1.6701 -815.5847,-1420.94895 -816.6015,-1421.04807 -1.1566,-0.11277 -820.5705,1418.20937 -820.68309,1420.51917 -0.0268,0.55 368.35126,1 818.61789,1 450.2667,0 818.6667,-0.212 818.6667,-0.4711 z m -992,-43.6596 c -15.6196,-3.0504 -30.4018,-14.4772 -36.7959,-28.4436 -7.218,-15.7663 -6.9508,-31.9707 0.835,-50.6197 2.1751,-5.21 25.2502,-53.2136 51.278,-106.675 26.0277,-53.4612 48.0354,-99.1717 48.9058,-101.5788 1.087,-3.0061 1.1564,-4.9261 0.2214,-6.1312 -0.7486,-0.9649 -27.1049,-33.5481 -58.5694,-72.4072 l -57.2082,-70.6528 -0.6667,74.6528 -0.6667,74.6528 L 1020.1966,1712 c -34.73175,134.5985 -35.32652,136.4129 -48.93592,149.2841 -3.98087,3.765 -11.29305,8.7663 -16.24931,11.1139 -8.27488,3.9197 -10.1011,4.2681 -22.3447,4.2615 -11.69215,0 -14.2823,-0.451 -21.04287,-3.6126 -15.82645,-7.4012 -25.46307,-18.9744 -29.73751,-35.7136 -4.40329,-17.2437 -3.44012,-22.431 25.29574,-136.2337 l 26.1513,-103.5672 v -120.6473 c 0,-114.9295 0.1204,-121.0346 2.54196,-128.8148 3.34142,-10.736 10.29692,-19.5046 28.14682,-35.4836 8.0545,-7.2103 14.64456,-13.2798 14.64456,-13.4877 0,-0.208 -2.25,-1.5377 -5,-2.9551 -9.80943,-5.0556 -18.12471,-16.73 -19.78042,-27.771 -0.8507,-5.6729 -1.55996,-6.3974 -23.93104,-24.4467 -18.59448,-15.0022 -23.62445,-19.7782 -26.00138,-24.6883 -5.20472,-10.7515 -1.54055,-20.9191 9.18429,-25.4853 8.35729,-3.5582 14.29285,-1.0036 32.93856,14.1764 11.29724,9.1975 13.4016,10.4437 14.23728,8.4318 0.53935,-1.2984 7.30565,-30.8608 15.03624,-65.6941 7.73057,-34.8334 15.29441,-67.5334 16.80852,-72.6667 4.26933,-14.4745 11.16908,-26.4238 19.95398,-34.557 13.9359,-12.9023 4.9984,-12.1097 136.554,-12.1097 106.2517,0 115.4266,0.1783 125.022,2.4292 12.1101,2.8408 18.53,7.1851 28.0255,18.9647 8.4754,10.5141 81.1649,115.5204 89.4018,129.1487 9.2128,15.2428 12.2297,21.5561 15.5937,32.6313 3.8606,12.71 3.1119,21.7194 -2.9688,35.7249 -2.4916,5.739 -30.8536,58.6575 -63.0265,117.5966 -40.9345,74.9898 -58.1288,107.6853 -57.272,108.905 1.3147,1.8716 253.3269,204.7255 257.8351,207.5408 2.3594,1.4735 2.9844,1.2687 4.9661,-1.6277 1.2469,-1.8224 6.4393,-7.6488 11.5388,-12.9475 28.5065,-29.6208 64.2576,-40.7233 99.5973,-30.9301 27.1522,7.5241 53.815,30.7523 70.0156,60.996 3.7696,7.0372 3.8434,7.0891 8.537,6 2.6038,-0.6041 11.3344,-1.0583 19.401,-1.0091 12.8911,0.079 15.5954,0.514 22.3375,3.5952 9.3721,4.2831 20.8845,14.9216 26.9469,24.9015 6.2963,10.3647 11.3644,26.3427 12.8207,40.4188 1.3273,12.8303 1.7919,14.3284 4.4417,14.3284 6.1155,0 23.2747,13.1655 28.8574,22.1409 2.3548,3.786 3.3478,4.2131 11.5857,4.9822 25.1136,2.3446 43.6968,11.8121 58.0487,29.5738 7.929,9.813 19.6453,29.7067 18.7972,31.917 -0.4702,1.225 -14.3912,1.8586 -56.2303,2.5593 -74.718,1.2511 -598.8441,-0.6079 -599.7831,-2.1273 -1.4277,-2.31 13.4059,-22.6403 23.1766,-31.765 16.0053,-14.9473 31.8424,-21.3136 64.2172,-25.8145 8.2225,-1.1431 15.5126,-2.4261 16.2002,-2.8511 0.6876,-0.4249 1.2503,-2.4304 1.2503,-4.4565 0,-5.48 3.8603,-15.9445 8.6927,-23.5645 8.6424,-13.6279 25.4638,-24.1964 40.7133,-25.5792 7.8559,-0.7123 8.1419,-0.8759 10.8471,-6.2067 10.807,-21.2955 28.4252,-38.9745 47.601,-47.7653 7.1258,-3.2668 8.2172,-4.19 6.6667,-5.639 -1.0197,-0.953 -55.152,-44.4546 -120.2939,-96.6702 -72.9507,-58.4748 -119.1671,-94.6584 -120.3334,-94.2108 -1.0414,0.3996 -1.8935,1.2373 -1.8935,1.8614 0,0.6243 5.55,7.3086 12.3333,14.854 21.3894,23.7927 25,30.8295 25,48.7234 0,12.6029 -2.7182,22.6274 -10.4949,38.7048 -15.9835,33.0433 -119.0907,229.122 -123.9219,235.6618 -10.2301,13.8479 -23.1099,22.4394 -38.5426,25.7095 -10.0743,2.1348 -11.7798,2.1764 -20.3739,0.498 z m -6.7927,-697.0089 c 21.336,-20.7934 38.7927,-38.2651 38.7927,-38.8259 0,-1.7388 -59.1136,-2.5776 -60.8329,-0.8632 -0.8248,0.8224 -4.9632,16.7953 -9.1964,35.4953 -4.2332,18.7 -8.1523,35.9813 -8.709,38.4029 -0.5567,2.4216 -0.5251,4.2216 0.07,4 0.5954,-0.2216 18.5392,-17.4157 39.8752,-38.2091 z m 338.79,-8.8406 c -24.1277,-4.8136 -44.8122,-19.0909 -58.355,-40.2788 -15.6934,-24.5525 -17.3983,-57.727 -4.3644,-84.9243 10.6365,-22.1951 32.7024,-40.2135 57.5025,-46.9548 11.4503,-3.11256 32.3491,-3.10223 43.8863,0.022 24.6329,6.6698 45.7537,23.9828 56.4036,46.2345 7.5696,15.8156 9.492,23.9798 9.391,39.8819 -0.097,15.3918 -2.841,26.4369 -9.9812,40.185 -17.8312,34.3336 -56.9678,53.3193 -94.4828,45.8348 z"
         id="path681" />
      <path
         style="fill:#b09292;stroke-width:1.33333"
         d="M 122,2233.9581 C 96.306797,2231.1968 77.775123,2226.1717 59.333333,2216.9653 26.344404,2200.4968 7.3542893,2177.1008 1.9220672,2146.2341 -3.3184581,2116.4567 2.532078,2084.5743 19.826053,2048.6667 29.151317,2029.3045 1150.6536,91.001993 1164.9089,69.609513 c 36.6129,-54.943653 85.0243,-77.9091882 139.704,-66.2731835 12.477,2.6551334 33.8148,13.2988875 46.0538,22.9725335 14.2402,11.255466 28.0002,26.52739 39.2782,43.593754 12.2692,18.566474 1139.9043,1954.799883 1150.0903,1974.790683 19.9375,39.129 24.8524,78.2862 14.1789,112.9612 -7.0493,22.9008 -28.0998,45.8612 -54.0086,58.9087 -19.8195,9.9809 -36.5171,14.7411 -61.5388,17.5435 -23.8322,2.6692 -2291.80159,2.5237 -2316.6667,-0.1486 z m 2315.4551,-5.1961 c 40.2209,-4.9895 66.668,-16.5224 88.5741,-38.6249 13.5579,-13.6796 19.9297,-24.3166 24.878,-41.5306 4.5104,-15.6908 4.2057,-42.7086 -0.6857,-60.808 -4.3962,-16.2666 -10.0212,-30.521 -18.0731,-45.7985 C 2524.31,2027.1276 1401.7641,99.357215 1389.6705,80 c -22.813,-36.51488 -48.3634,-58.670405 -79.7577,-69.160283 -25.2245,-8.4283655 -52.3106,-6.6755245 -77.2195,4.997151 -27.1958,12.7444 -49.0016,33.500704 -68.3878,65.096475 C 1153.6837,98.244921 36.77894,2028.2825 29.526659,2041.8579 c -26.9970594,50.535 -31.2676225,97.4176 -11.95291,131.2198 16.719728,29.2608 54.91935,49.3684 105.405761,55.4836 23.08497,2.7962 2291.96689,2.993 2314.47559,0.2007 z M 127.33333,2195.8143 c -51.975835,-5.732 -86.094023,-37.0339 -85.976845,-78.8799 0.03885,-13.874 4.806127,-32.1636 12.162822,-46.6627 C 60.377272,2056.7556 1198.3736,87.679437 1204.3242,79.032968 c 8.4729,-12.311583 23.6491,-26.731999 34.5185,-32.799475 25.1835,-14.05778 53.5287,-13.368885 79.4226,1.930264 9.5053,5.61611 26.2343,21.925136 33.3398,32.50291 7.2204,10.748705 1146.9752,1973.696633 1155.8493,1990.666633 8.8881,16.997 12.5457,28.9387 13.4764,44 1.2385,20.045 -4.4619,36.4671 -17.7585,51.1604 -11.579,12.7952 -24.9591,20.4382 -47.839,27.3262 l -9.3333,2.8098 -1154,0.1804 c -659.10144,0.1027 -1158.57445,-0.324 -1164.66667,-0.9958 z m 1969.76437,-273.623 c -0.8997,-3.7749 -816.4948,-1423.48254 -817.7644,-1423.48379 -1.4385,-0.001 -821.99997,1421.29729 -821.99997,1423.79039 0,1.1124 212.80954,1.5021 820.09777,1.5021 689.7338,0 820.0293,-0.2875 819.6666,-1.8087 z m -994.1216,-44.9386 c -8.1985,-1.6162 -20.926,-8.8028 -26.4829,-14.9536 -2.6352,-2.917 -6.6713,-9.2775 -8.9689,-14.1346 -3.7305,-7.8858 -4.1742,-10.1156 -4.1456,-20.8312 0.021,-7.9592 0.8501,-14.4693 2.4611,-19.3333 1.3359,-4.0333 25.4685,-54.8143 53.6279,-112.8465 28.1594,-58.0322 51.199,-106.3719 51.199,-107.4215 0,-1.9933 -116.6268,-146.7063 -118.91,-147.5459 -0.8457,-0.311 -1.2089,25.5639 -1.0294,73.3334 l 0.2774,73.8138 L 1019.4031,1710 c -23.65166,91.8079 -32.74014,125.0507 -36.12758,132.1431 -6.45768,13.5208 -14.65021,22.0762 -26.97415,28.169 -9.7082,4.7998 -10.74768,5.0212 -23.56214,5.0212 -11.95174,0 -14.30583,-0.4157 -21.70239,-3.8322 -10.21692,-4.7192 -20.47883,-15.1704 -25.35608,-25.8238 -2.89753,-6.329 -3.60132,-10.1014 -4.04285,-21.6702 L 881.10332,1810 l 26.115,-104.3528 26.11501,-104.3528 0.0264,-116.9805 c 0.016,-70.6916 0.55382,-120.6738 1.35924,-126.3139 2.4196,-16.9436 7.43932,-24.1345 33.24334,-47.6225 l 12.629,-11.4955 -4.51594,-2.441 c -11.57149,-6.2548 -19.06757,-16.3895 -21.15156,-28.5971 -0.94752,-5.5504 -1.95381,-6.5868 -22.95738,-23.6455 -12.08155,-9.8124 -23.38598,-19.8343 -25.12098,-22.2708 -3.75758,-5.2769 -4.99298,-14.5966 -2.54792,-19.2209 2.32067,-4.3891 9.92359,-9.3805 14.23296,-9.3441 5.91303,0.05 13.61924,4.5069 27.29316,15.7853 7.23636,5.9687 13.58043,10.8521 14.09794,10.8521 0.51752,0 5.0033,-18.15 9.96842,-40.3333 21.21355,-94.7787 23.51107,-103.9826 28.77266,-115.2625 6.18673,-13.2634 14.95733,-23.0387 25.17123,-28.0546 l 7.4994,-3.6829 h 117.3334 c 108.5956,0 117.9787,0.1776 126,2.385 11.4346,3.1467 16.9856,7.0043 25.768,17.9072 8.3476,10.3632 79.8022,113.3267 89.0893,128.3744 20.1819,32.7005 22.8492,48.0975 12.25,70.7132 -2.9093,6.2078 -30.9712,58.2996 -62.3597,115.7596 -31.3887,57.46 -57.3403,105.5054 -57.6703,106.7675 -0.451,1.7245 31.3245,27.9811 127.9,105.686 70.6751,56.8653 129.854,104.22 131.5089,105.2325 2.772,1.6963 3.2296,1.5264 5.8144,-2.1588 5.551,-7.9137 23.4068,-24.5296 33.3019,-30.989 51.428,-33.5727 111.2977,-13.8916 146.3267,48.1021 3.6812,6.5149 4.857,7.6525 7.2333,6.9981 43.9979,-12.1176 79.0227,17.3152 83.0705,69.8079 l 0.8119,10.5283 7.6293,2.7817 c 8.5827,3.1295 18.0874,10.8549 24.0918,19.582 3.7536,5.4557 4.4389,5.8556 10.0348,5.8556 7.8792,0 23.4997,3.5897 31.8658,7.3231 16.1742,7.2174 31.0716,22.4561 42.6144,43.5901 4.843,8.8669 4.8535,8.9209 2.0275,10.4333 -3.7256,1.994 -648.617,1.2116 -650.6179,-0.7892 -1.9928,-1.9928 11.5161,-21.2765 21.1593,-30.2044 17.4505,-16.1561 29.4813,-20.5818 74.6915,-27.4768 l 5.8747,-0.8958 2.8255,-10.6568 c 6.3054,-23.7828 24.0465,-39.9242 47.3894,-43.1166 9.1536,-1.2518 8.8055,-0.956 15.9547,-13.5532 10.4664,-18.442 27.6697,-34.3598 44.8149,-41.4661 3.9963,-1.6564 7.266,-3.4724 7.266,-4.0356 0,-1.6608 -241.0756,-194.4853 -243.152,-194.4853 -2.3432,0 -3.8693,3.6204 -2.5168,5.9704 0.5512,0.9577 7.2468,8.5561 14.8791,16.8854 8.2336,8.9855 15.1428,17.895 16.9898,21.9084 9.031,19.6242 6.7281,36.1558 -9.5512,68.564 -27.1396,54.029 -115.6132,221.8714 -120.2783,228.1788 -14.6841,19.854 -36.9655,29.3691 -58.7278,25.079 z m 5.3572,-705.2323 c 16.6834,-16.4992 30.3334,-30.4535 30.3334,-31.0095 0,-0.556 -14.7,-1.0109 -32.6667,-1.0109 -17.9667,0 -32.6667,0.2192 -32.6667,0.4871 0,0.2679 -4.2,18.8216 -9.3333,41.2305 -5.1333,22.4089 -9.3333,41.2264 -9.3333,41.8168 0,1.2352 11.1907,-9.5066 53.6666,-51.514 z M 1432,1170.5888 c -26.0335,-6.7626 -46.5072,-23.4604 -57.9415,-47.2555 -22.5177,-46.8598 1.6034,-103.4221 51.0775,-119.7735 41.466,-13.70463 85.698,4.6693 104.9047,43.5774 12.9316,26.1961 13.0458,51.6419 0.349,77.6886 -17.6053,36.1164 -59.8626,55.7711 -98.3897,45.763 z"
         id="path679" />
      <path
         style="fill:#946868;stroke-width:1.33333"
         d="m 138,2235.1243 c -33.89384,-2.775 -58.106096,-8.5678 -78.666667,-18.8212 -29.75748,-14.84 -46.354796,-33.6796 -55.4751991,-62.9698 -2.643709,-8.4902 -3.10032099,-12.7174 -3.02447106,-28 C 0.96299496,2099.2751 6.4281027,2077.9796 20.508771,2048.6667 28.030639,2033.0077 1153.2258,88.236675 1165.8847,69.015388 c 9.5769,-14.541464 27.8062,-33.950604 41.2998,-43.972608 12.6926,-9.427085 28.4109,-17.1990932 42.8155,-21.1704385 15.3768,-4.23936145 39.6482,-4.20148746 55.1556,0.086067 13.3614,3.6942323 32.9977,13.4387445 43.7445,21.7082155 11.8758,9.138203 30.9639,29.807832 39.5083,42.781557 10.2713,15.595964 1141.6027,1958.297919 1150.706,1975.971819 12.4147,24.1025 20.8929,55.3591 20.8627,76.9133 -0.037,26.613 -13.465,58.1106 -32.1774,75.479 -18.6994,17.3564 -46.1753,29.7298 -80.4266,36.2192 -11.2995,2.1408 -82.498,2.2886 -1158.0398,2.4052 -630.29997,0.068 -1148.39997,-0.072 -1151.3333,-0.3124 z m 2301.5701,-5.818 c 58.9639,-7.691 96.1551,-33.7588 111.2446,-77.973 2.8569,-8.3709 3.1833,-11.602 3.1656,-31.3333 -0.017,-19.8813 -0.3687,-23.2287 -3.6426,-34.758 -4.442,-15.6431 -9.7242,-28.6164 -18.1101,-44.4785 C 2521.4669,2020.4096 1393.4221,84.115833 1385.2665,72 1361.2864,36.375384 1333.1306,15.036033 1300,7.3764344 c -11.1353,-2.5744109 -34.1981,-2.5744109 -45.3333,0 C 1221.575,15.027037 1192.4112,37.217225 1168.8579,72.666667 1161.8187,83.261296 40.698923,2019.6461 29.047837,2041.3333 c -11.28343,21.0028 -19.2587902,43.4446 -22.4337645,63.1262 -2.5763886,15.9709 -1.1259445,40.6046 3.100245,52.6533 6.9192455,19.7264 18.4843295,34.3905 36.7673815,46.6199 19.087121,12.7672 41.181724,20.5038 70.851631,24.8093 10.68007,1.5499 192.96188,1.8607 1162.23687,1.9815 774.7505,0.096 1152.9709,-0.3004 1159.9999,-1.2172 z M 450.66667,2195.9657 c -257.61939,-0.5674 -331.31601,-1.0914 -336,-2.3893 -23.447441,-6.4967 -37.186143,-13.0212 -48.325541,-22.9496 -13.665954,-12.1803 -21.491552,-27.1771 -23.486604,-45.0092 -2.326697,-20.7964 3.136199,-40.9729 18.293822,-67.5659 C 101.96335,1986.4449 1197.598,90.521684 1202.3179,83.333333 c 10.9419,-16.664477 22.7453,-28.40081 36.4466,-36.239637 24.7324,-14.149939 53.4145,-13.538192 78.8851,1.6825 11.3119,6.759793 29.4608,25.603785 37.8967,39.348309 11.9794,19.518015 1149.4968,1979.373195 1153.5462,1987.471895 14.755,29.5088 15.132,56.9183 1.112,80.8415 -5.146,8.7809 -19.0726,20.996 -31.032,27.2178 -12.6065,6.5587 -26.0204,10.4407 -42.5058,12.3014 -12.5462,1.416 -1344.4208,1.4218 -1986.00003,0.013 z m 1648.00003,-272.209 c 0,-2.7294 -817.7703,-1426.42337 -819.338,-1426.42337 -1.4012,0 -822.16683,1420.75337 -823.09142,1424.77917 -0.5624,2.449 13.555,2.4935 916.09602,2.8966 558.2564,0.2492 726.3334,-0.04 726.3334,-1.2524 z m -996.9688,-47.7184 c -13.9549,-3.3154 -27.0687,-14.2936 -33.492,-28.0383 -3.0019,-6.4233 -3.4253,-9.0705 -3.4125,-21.3333 0.012,-11.4967 0.5735,-15.4306 3.1397,-22 1.7188,-4.4 25.837,-54.743 53.596,-111.8732 27.759,-57.1303 50.4599,-104.5303 50.4465,-105.3334 -0.037,-2.181 -118.743,-148.1268 -120.4805,-148.1268 -1.0922,0 -1.3615,19.4016 -0.9993,72 l 0.4958,72 -32.2519,125.3302 c -22.55889,87.6632 -33.49545,127.9358 -36.38949,134 -5.15045,10.7924 -16.95976,22.9085 -26.62286,27.3146 -40.4686,18.4528 -80.27167,-13.6225 -73.14003,-58.94 0.89771,-5.7042 12.8328,-54.4714 26.52243,-108.3714 l 24.89025,-98 0.66667,-126 0.66666,-126 3.57843,-7.6351 c 4.91703,-10.4911 9.33921,-15.6467 27.09715,-31.5912 8.42844,-7.5678 15.32442,-14.1766 15.32442,-14.6864 0,-0.5097 -2.0301,-1.8949 -4.51134,-3.0781 -10.96784,-5.2302 -18.17339,-14.7451 -20.94175,-27.6535 -1.42075,-6.6247 -1.78849,-7.0109 -22.99537,-24.1448 -25.78964,-20.8366 -27.8293,-23.1668 -28.61956,-32.6964 -0.55672,-6.7133 -0.32087,-7.3923 4.10534,-11.8185 3.93686,-3.9369 5.63364,-4.6949 10.49602,-4.6892 6.92601,0.01 10.58253,2.143 28.2712,16.5062 7.12092,5.7822 13.32918,10.131 13.79614,9.6641 0.46696,-0.467 6.72762,-27.0979 13.91255,-59.1798 18.18204,-81.1857 19.5032,-86.432 24.49289,-97.2603 5.25205,-11.3975 14.67915,-21.9664 23.96745,-26.8701 L 1030,1034 l 112.6667,-0.3883 c 113.4363,-0.391 128.8507,0.094 139.1078,4.38 6.267,2.6186 11.5963,7.3288 19.3186,17.0746 9.7926,12.3586 84.0477,120.0931 91.2022,132.3226 10.0959,17.2572 14.6695,30.1457 14.743,41.5456 0.06,9.2358 -0.3358,10.5306 -7.954,26.0588 -4.4092,8.987 -33.007,62.1342 -63.5506,118.1048 -30.5435,55.9707 -55.5337,102.247 -55.5337,102.8363 0,1.3796 260.8023,211.2699 263.1664,211.7928 0.9795,0.2167 2.8697,-1.2833 4.2007,-3.3333 4.2177,-6.4963 19.6648,-21.8087 28.0846,-27.8395 41.0371,-29.3939 89.5234,-25.0045 125.9276,11.3996 9.1907,9.1908 17.8487,20.9077 24.6419,33.3484 3.0124,5.5167 4.6851,7.2797 6.6667,7.0276 1.455,-0.1852 7.2464,-1.0503 12.8698,-1.9223 37.1291,-5.7578 66.3348,23.4395 70.22,70.1998 l 0.889,10.6985 9.751,4.8339 c 10.4827,5.1965 17.3451,10.9569 22.3467,18.7582 2.8733,4.4816 3.7963,4.9678 10.8547,5.7178 27.5102,2.923 46.7626,12.7482 60.6904,30.9726 7.9014,10.3392 17.3602,26.7884 16.3469,28.428 -1.1159,1.8056 -649.5223,1.8184 -650.6382,0.013 -1.3767,-2.2275 11.8566,-20.3164 21.3806,-29.2255 15.1915,-14.2111 32.2996,-21.0116 63.8187,-25.3684 10.9109,-1.5081 16.1892,-2.8071 16.8588,-4.1489 0.536,-1.0743 1.7192,-5.2534 2.6293,-9.2867 2.4069,-10.6679 7.2972,-19.5112 15.096,-27.2996 8.4431,-8.432 19.0173,-13.752 31.5213,-15.8589 l 9.5059,-1.6016 3.6227,-6.62 c 12.4774,-22.8008 29.0032,-38.6827 49.2152,-47.2979 3.85,-1.6411 7,-3.4744 7,-4.074 0,-1.5708 -241.2021,-194.7967 -244.1131,-195.5579 -1.7562,-0.4593 -2.6683,0.3027 -3.2801,2.7403 -1.1152,4.4431 -0.6458,5.1545 13.501,20.4655 15.1606,16.4081 18.5622,21.579 21.3348,32.4317 2.8394,11.1139 1.8292,22.9108 -3.1606,36.9104 -4.1454,11.6303 -120.1915,235.1816 -128.2223,247.0073 -14.5228,21.3858 -38.8441,32.0635 -61.0285,26.793 z M 1098,1183.4681 c 23.4667,-23.0003 42.1676,-42.3398 41.5576,-42.9767 -0.61,-0.6369 -15.899,-1.1581 -33.9755,-1.1581 h -32.8663 l -9.6416,42 c -10.5514,45.9636 -10.1631,44.0099 -8.7409,43.9767 0.55,-0.013 20.2,-18.8417 43.6667,-41.8419 z m 334.2333,-13.3276 c -3.905,-0.992 -12.2848,-4.3728 -18.6216,-7.5128 -16.6712,-8.261 -29.8404,-21.6775 -38.0316,-38.7458 -7.1065,-14.8079 -8.9134,-22.5792 -8.9134,-38.3341 0,-55.6109 53.1968,-96.72691 107.2584,-82.9003 28.1038,7.1878 52.0906,29.7701 60.9197,57.3525 3.9595,12.3699 4.7748,31.5863 1.8904,44.5517 -6.5773,29.5634 -27.8356,53.0109 -57.7015,63.6435 -9.9262,3.5339 -36.2417,4.6277 -46.8004,1.9453 z"
         id="path677" />
      <path
         style="fill:#724a4a;stroke-width:1.33333"
         d="M 136.66667,2234.6445 C 73.485384,2229.7184 28.449492,2206.4737 11.02458,2169.7963 2.7286311,2152.3341 -0.44208997,2137.0512 0.69348179,2120 2.326164,2095.4844 11.044448,2067.6133 25.926619,2039.3333 35.796581,2020.5779 1156.6304,84.444796 1165.6092,70.640884 1191.5234,30.8006 1227.9609,6.0040456 1267.6667,1.1883014 1310.8569,-4.0500563 1359.2559,23.962135 1390.0139,72 c 8.0708,12.604839 1134.4805,1946.5679 1144.2926,1964.6667 22.9004,42.2402 30.3687,81.7113 21.179,111.9342 -13.1594,43.2778 -46.9138,71.2662 -98.1522,81.3852 -6.2333,1.2311 -13.7333,2.9247 -16.6666,3.7636 -3.9826,1.139 -294.9159,1.5639 -1148.6667,1.6779 -628.83333,0.084 -1148.73333,-0.2685 -1155.33333,-0.7831 z m 2302.05803,-4.5682 c 53.4801,-7.1207 89.7156,-28.8748 106.7301,-64.0763 7.9389,-16.4249 9.7943,-25.1617 9.7684,-46 -0.032,-26.2028 -5.0953,-45.2089 -19.8885,-74.6641 C 2527.8864,2030.5056 1395.512,85.879725 1386.2421,72 1368.9523,46.111981 1348.5893,27.150233 1326.3112,16.192981 1291.1693,-1.0912137 1254.5574,0.47685069 1219.9753,20.747283 1205.1627,29.429792 1180.8166,53.282564 1169.7039,70 1158.3624,87.061912 35.808277,2026.5979 25.905796,2046.2412 c -33.0668299,65.5941 -27.9243419,122.2827 13.951383,153.7943 21.09393,15.8732 48.265562,25.7012 82.809491,29.9524 21.78056,2.6804 2295.93803,2.7672 2316.05803,0.088 z M 138.66667,2195.1084 c -44.405961,-3.1963 -75.500865,-19.8231 -88.741193,-47.4509 -10.972304,-22.8954 -9.040513,-47.8798 5.997076,-77.5616 C 64.565772,2053.0355 1197.6267,91.370727 1205.7904,79.333333 c 20.7727,-30.629284 54.4163,-46.544029 84.8763,-40.14979 16.5879,3.48218 30.6801,11.367272 44.1128,24.682662 6.3625,6.30692 14.255,15.667128 17.539,20.800462 4.9976,7.811908 1130.9356,1946.544633 1151.4639,1982.685233 13.598,23.9396 18.5883,46.5494 14.4668,65.5464 -2.532,11.671 -6.9464,21.581 -13.0423,29.279 -10.3136,13.0243 -29.4664,24.4294 -50.5402,30.0959 l -11.3334,3.0473 L 1294,2195.4299 c -632.13333,0.06 -1152.03333,-0.084 -1155.33333,-0.322 z M 2099.4792,1924.7673 c 1.1217,-2.9233 -817.3509,-1428.10063 -820.1515,-1428.10063 -1.6065,0 -120.95,205.68577 -413.4597,712.58853 -226.16073,391.9236 -411.20133,713.3727 -411.20133,714.3312 0,1.4301 73.93461,1.8032 412.33333,2.0803 1304.6909,1.0682 1231.7037,1.1214 1232.4792,-0.8994 z m -597.9536,-48.3804 c -191.645,-0.3518 -215.0564,-0.6158 -214.365,-2.4174 2.0959,-5.4619 12.1674,-18.2703 20.6825,-26.3031 15.3188,-14.4509 30.2772,-20.5693 61.385,-25.1079 9.8423,-1.4358 18.6092,-3.2036 19.4822,-3.9281 0.873,-0.7245 1.9585,-4.4628 2.4121,-8.3072 2.568,-21.764 23.4985,-41.4993 47.4931,-44.7808 4.7276,-0.6465 8.7913,-1.7628 9.0305,-2.4805 2.0879,-6.2636 15.9659,-25.5579 24.4283,-33.9622 8.3186,-8.2613 12.7733,-11.4345 23.115,-16.4656 7.0459,-3.4276 12.8107,-6.7136 12.8107,-7.3021 0,-1.6917 -244.495,-197.3887 -245.9913,-196.8947 -0.7381,0.2438 -2.2133,1.9884 -3.2783,3.877 -1.8563,3.2921 -1.6695,3.746 4.5268,10.9989 3.5547,4.1607 10.3445,11.7945 15.0885,16.964 11.2294,12.2364 15.4298,21.2488 16.0844,34.5103 0.5626,11.3958 -1.7546,22.3548 -7.4264,35.1241 -6.1349,13.8117 -117.6351,227.608 -123.312,236.4448 -6.7436,10.4972 -17.138,20.0704 -27.2269,25.0759 -7.1715,3.558 -8.9766,3.8701 -22.4648,3.8849 -13.6226,0.015 -15.2215,-0.2647 -22.4601,-3.9289 -8.8845,-4.4975 -17.7899,-13.6968 -22.2792,-23.015 -2.339,-4.8548 -3.2065,-9.3933 -3.641,-19.0485 -0.4945,-10.9889 -0.1207,-14.0043 2.8111,-22.6667 1.8599,-5.4953 26.2602,-57.0448 54.223,-114.5545 l 50.8413,-104.5631 -3.0139,-4.1036 c -10.4676,-14.252 -117.8523,-145.5172 -119.3309,-145.868 -1.5172,-0.36 -1.817,11.8646 -1.817,74.1024 v 74.5336 l -31.8905,124.0912 c -20.45147,79.5802 -33.23208,126.8912 -35.63072,131.8975 -5.35265,11.1716 -18.87645,24.298 -29.15585,28.2989 -16.33498,6.3579 -34.36732,4.6836 -48.20647,-4.4758 -8.09648,-5.3588 -12.31,-10.5434 -17.39668,-21.4063 -3.41737,-7.298 -3.71297,-9.1901 -3.63637,-23.2771 l 0.0833,-15.3333 25.91661,-102 25.91663,-102 0.66667,-125.3333 0.66666,-125.3334 3.0255,-6.5604 c 4.21793,-9.1462 9.72353,-15.471 26.82017,-30.8113 8.14945,-7.3122 14.81805,-14.2799 14.81909,-15.4837 0.001,-1.2487 -1.49418,-2.5643 -3.48144,-3.0631 -5.63126,-1.4133 -17.06517,-13.8472 -19.61493,-21.3303 -1.22923,-3.6078 -2.235,-7.9254 -2.235,-9.5947 0,-2.3247 -5.43495,-7.4202 -23.21624,-21.7663 -18.66081,-15.0558 -23.78995,-19.9163 -26.14016,-24.7711 -7.51691,-15.5279 6.15563,-27.813 21.89544,-19.6737 2.23791,1.1573 9.82853,6.818 16.86807,12.5794 11.03574,9.032 17.25956,12.5337 17.25956,9.7106 0,-1.206 29.20641,-130.9893 31.48354,-139.902 5.1141,-20.0167 16.73282,-36.4529 30.20112,-42.7233 l 6.982,-3.2507 116.0885,-0.013 c 119.3292,-0.013 126.7616,0.2768 136.5359,5.3316 4.9258,2.5475 12.7701,10.2704 19.6254,19.322 7.6874,10.1503 76.9697,110.6802 83.1957,120.7185 15.0889,24.3283 20.8521,40.2014 19.3223,53.2177 -1.2459,10.6009 -6.7099,21.3154 -69.9612,137.1892 -30.9705,56.7366 -56.1082,104.2526 -55.8829,105.6314 0.2405,1.4714 53.5393,45.2544 129.0763,106.0316 70.7667,56.9391 130.0892,104.4714 131.8278,105.6275 3.0194,2.0077 3.286,1.926 5.9464,-1.8236 5.2741,-7.4335 21.5752,-23.5613 29.5592,-29.2452 18.2396,-12.9847 34.6384,-18.2823 56.6666,-18.3063 20.5856,-0.023 37.4918,5.9254 55.6576,19.5808 13.4086,10.0795 29.1499,29.2882 37.5963,45.8776 l 2.9696,5.8327 6.2216,-1.1485 c 3.4219,-0.6316 12.2364,-1.1563 19.5877,-1.1659 12.4191,-0.016 13.993,0.2913 22.2116,4.3395 21.0262,10.3568 37.0039,38.3789 37.0692,65.013 0.02,8.3958 2.4722,13.9634 6.1484,13.9634 6.1692,0 20.4708,10.8793 27.2452,20.7256 3.7344,5.4277 4.017,5.5634 13.4,6.4356 27.692,2.5736 47.0108,13.6885 62.1026,35.73 7.6754,11.21 13.1924,20.8456 12.3608,21.5886 -1.1163,0.9972 -222.5115,1.6295 -434.3783,1.2404 z M 1098.808,1183.7267 c 27.657,-27.077 42.7019,-42.7181 41.8521,-43.5108 -1.7494,-1.6319 -64.8007,-3.3058 -67.089,-1.7811 -1.8364,1.2235 -21.7141,85.4063 -20.6143,87.3023 0.3415,0.5887 1.0825,0.8887 1.6467,0.6666 0.5641,-0.222 20.4562,-19.4267 44.2045,-42.677 z m 341.8587,-13.0807 c -18.7203,-2.5671 -33.5231,-10.1581 -48.1702,-24.702 -8.7265,-8.6651 -11.8805,-12.9529 -16.1969,-22.0189 -6.8145,-14.3135 -8.8181,-22.9303 -8.8181,-37.9251 0,-23.5898 7.8377,-42.7045 24.3006,-59.2647 15.2579,-15.3479 30.0034,-22.7066 50.6896,-25.2967 38.7828,-4.85573 76.306,18.0017 90.1374,54.9076 6.128,16.3515 6.6677,39.4816 1.3089,56.1022 -8.1869,25.3926 -30.8033,47.4819 -56.5847,55.2657 -10.5405,3.1824 -25.8897,4.4097 -36.6666,2.9319 z"
         id="path675" />
      <path
         style="fill:#612929;stroke-width:1.33333"
         d="M 140.33333,2235.0065 C 133.55,2234.7645 128,2234.1391 128,2233.6167 c 0,-0.5226 519.3,-0.95 1154,-0.95 634.7,0 1154,0.3574 1154,0.7942 0,0.4368 -7.65,1.1844 -17,1.6612 -16.7433,0.854 -2254.67161,0.7404 -2278.66667,-0.116 z m -20.65112,-3.9496 c 1.65855,-0.3189 4.05855,-0.3068 5.33334,0.027 1.27478,0.3337 -0.0822,0.5947 -3.01555,0.5799 -2.93333,-0.015 -3.97634,-0.2879 -2.31779,-0.6068 z M 2439,2231.0809 c 1.2833,-0.3354 3.3833,-0.3354 4.6667,0 1.2833,0.3354 0.2333,0.6098 -2.3334,0.6098 -2.5666,0 -3.6166,-0.2744 -2.3333,-0.6098 z m -2329.30796,-1.3382 c 1.29729,-0.338 3.09729,-0.3159 4,0.049 0.90271,0.3652 -0.15871,0.6417 -2.35871,0.6147 -2.2,-0.027 -2.93858,-0.326 -1.64129,-0.6642 z m 2338.66666,0 c 1.2973,-0.338 3.0973,-0.3159 4,0.049 0.9028,0.3652 -0.1587,0.6417 -2.3587,0.6147 -2.2,-0.027 -2.9385,-0.326 -1.6413,-0.6642 z M 98.666667,2228 c -2.639444,-0.8453 -2.778222,-1.0675 -0.666667,-1.0675 1.466667,0 4.16667,0.4803 6,1.0675 2.63944,0.8453 2.77822,1.0675 0.66667,1.0675 -1.46667,0 -4.16667,-0.4803 -6.000003,-1.0675 z M 2455.75,2228.4225 c 0.9625,-0.3852 2.1125,-0.3378 2.5556,0.1054 0.4431,0.443 -0.3445,0.7582 -1.75,0.7004 -1.5533,-0.064 -1.8692,-0.38 -0.8056,-0.8056 z m 5.25,-1.3056 c 0.9167,-0.3698 2.4167,-0.3698 3.3333,0 0.9167,0.3699 0.1667,0.6726 -1.6666,0.6726 -1.8334,0 -2.5834,-0.3027 -1.6667,-0.6726 z M 87.333333,2225.3333 c -3.397633,-1.46 0.107774,-1.46 4.666667,0 2.679641,0.8582 2.81038,1.0752 0.666667,1.1067 C 91.2,2226.461 88.8,2225.9636 87.333333,2225.3333 Z m 2381.333367,0 c 1.4666,-0.6302 3.5666,-1.1458 4.6666,-1.1458 1.2607,0 1.0142,0.4236 -0.6666,1.1458 -1.4667,0.6303 -3.5667,1.1459 -4.6667,1.1459 -1.2607,0 -1.0141,-0.4236 0.6667,-1.1459 z m 8.6666,-2.4417 c 1.1,-0.6796 3.5,-1.6369 5.3334,-2.1273 2.3166,-0.6196 2.7233,-0.5147 1.3333,0.3441 -1.1,0.6796 -3.5,1.6369 -5.3333,2.1273 -2.3167,0.6196 -2.7234,0.5147 -1.3334,-0.3441 z M 70.209713,2219.4003 c -4.284658,-1.7618 -8.184658,-3.6431 -8.666666,-4.1808 -0.48201,-0.5378 0.32362,-0.5054 1.790286,0.072 1.466667,0.5772 5.666667,2.2257 9.333334,3.6632 3.666666,1.4376 6.916666,2.8608 7.222222,3.1629 1.331784,1.3163 -2.453237,0.2537 -9.679176,-2.7173 z M 2488,2218.6667 c 1.1,-0.711 2.6,-1.2926 3.3333,-1.2926 0.7334,0 0.4334,0.5816 -0.6666,1.2926 -1.1,0.7109 -2.6,1.2925 -3.3334,1.2925 -0.7333,0 -0.4333,-0.5816 0.6667,-1.2925 z m 12.5399,-5.6478 c 1.3968,-0.927 6.9122,-4.5558 12.2564,-8.064 17.1697,-11.2708 30.5674,-28.3902 38.1486,-48.7457 2.0914,-5.6151 3.4667,-8.5348 3.0563,-6.4883 -4.614,23.0147 -28.3207,52.0148 -51.3345,62.7972 -2.5667,1.2026 -3.5238,1.4279 -2.1268,0.5008 z M 44.417611,2205.8533 c -4.996352,-3.3806 -11.67628,-8.6306 -14.844284,-11.6666 -5.78292,-5.542 -16.752589,-20.8747 -18.342375,-25.6379 -0.467878,-1.4019 1.356907,1.0029 4.055079,5.3439 9.31083,14.9797 19.985588,25.324 37.523786,36.3622 1.387934,0.8735 2.111442,1.6235 1.607794,1.6667 -0.503647,0.043 -5.003647,-2.6876 -10,-6.0683 z m 88.249059,-12.1168 c -43.287317,-3.9541 -73.875055,-23.1824 -84.954838,-53.4049 -2.221591,-6.0599 -2.828475,-10.8759 -2.898081,-22.9983 -0.102107,-17.7818 2.523641,-28.3198 11.446472,-45.9381 C 63.083052,2057.9235 1195.4535,97.232437 1203.6683,84.666667 c 8.4539,-12.931428 15.2981,-20.795896 24.1254,-27.721762 42.1756,-33.090846 93.9973,-19.708662 126.3983,32.64049 C 1374.1769,121.8744 2506.5636,2074.26 2510.3177,2082.9004 c 8.1059,18.6559 10.2108,36.3671 6.2959,52.9755 -6.2411,26.4768 -27.3483,45.4532 -61.2803,55.0936 l -10.6666,3.0305 -1153.3334,0.112 C 657,2194.1733 135.6,2194.004 132.66667,2193.7367 Z M 2098.3333,1927.1596 c 1.65,-0.4421 3,-1.6428 3,-2.668 0,-2.0751 -816.5099,-1425.33632 -819.4975,-1428.469 -1.3339,-1.39861 -2.4908,-1.59375 -3.9528,-0.66667 C 1274.9535,497.21359 453.20243,1921.5727 453.65973,1924 c 0.33422,1.7741 86.22882,2.0755 760.35857,2.6684 417.99,0.3676 787.2817,0.8095 820.6484,0.9819 33.3666,0.1722 62.0166,-0.048 63.6666,-0.4907 z m -997.0942,-52.9828 c -13.6928,-3.692 -25.3631,-13.7571 -31.7118,-27.3501 -3.032,-6.4918 -3.4898,-9.1864 -3.4249,-20.16 0.051,-8.5674 0.8403,-14.8242 2.4401,-19.3334 1.3009,-3.6666 25.4546,-54.202 53.675,-112.3006 28.2204,-58.0987 51.1162,-106.7568 50.8795,-108.1291 -0.6917,-4.0108 -120.1538,-150.8703 -122.4303,-150.5085 -1.7504,0.2781 -2.0001,9.7161 -2.0009,75.628 l -8e-4,75.3102 -31.7228,122.4882 c -19.08369,73.6862 -33.25745,125.8729 -35.57469,130.9834 -5.16712,11.3959 -15.48195,22.0992 -26.55008,27.5503 -8.10592,3.992 -9.74608,4.3115 -22.13979,4.3115 -12.41352,0 -14.02683,-0.3156 -22.22133,-4.3463 -10.28291,-5.0579 -17.3307,-12.28 -22.27608,-22.8271 -3.21016,-6.8462 -3.51308,-8.9325 -3.50806,-24.16 l 0.005,-16.6666 25.32781,-99.3334 25.32783,-99.3333 0.69321,-125.3333 c 0.76328,-138.0004 0.31421,-130.9298 9.12913,-143.7418 2.30267,-3.3468 11.53463,-12.818 20.51548,-21.0471 8.98087,-8.229 16.50698,-15.9642 16.72468,-17.1892 0.26683,-1.5013 -1.39489,-3.0347 -5.0984,-4.7048 -3.02182,-1.3626 -8.0631,-5.3347 -11.20282,-8.8269 -5.25298,-5.8425 -6.93179,-9.6686 -9.30923,-21.2158 -0.49433,-2.4009 -7.15555,-8.5966 -22.79477,-21.2017 -12.153,-9.7953 -23.30936,-19.5131 -24.79192,-21.5952 -5.78367,-8.1224 -4.35798,-19.442 2.92289,-23.2071 8.44068,-4.3648 13.44429,-2.2914 32.78711,13.5862 7.46644,6.1288 14.4933,11.1434 15.61526,11.1434 2.55044,0 1.77162,3.04 18.78722,-73.3334 7.76068,-34.8333 15.32786,-67.1745 16.81597,-71.8692 6.24628,-19.7058 16.36708,-33.4258 28.94438,-39.2374 l 6.262,-2.8934 h 118 118 l 9.4266,2.9655 c 14.9962,4.7175 14.3116,3.8935 69.5386,83.7012 51.3774,74.2445 57.5731,85.264 58.7434,104.4799 0.5085,8.3497 0.071,11.1583 -2.9406,18.8316 -1.946,4.9601 -30.5284,58.4441 -63.5165,118.8534 -32.9881,60.4094 -59.8148,110.8554 -59.6149,112.1024 0.462,2.882 261.6198,213.0692 264.7234,213.057 1.2687,0 3.6944,-2.0472 5.3906,-4.5383 5.5009,-8.0791 21.8532,-23.6815 31.065,-29.6405 18.676,-12.0815 38.3443,-17.4583 58.6016,-16.0204 33.8247,2.4009 63.135,23.5694 84.9278,61.3368 5.8678,10.1692 6.1525,10.4373 10.1792,9.5857 18.1954,-3.8479 27.407,-3.8108 38.7822,0.1563 14.0014,4.8828 27.8063,19.2566 34.635,36.062 3.8853,9.5618 7.392,26.0933 7.392,34.848 0,7.1338 0.9137,8.3586 8,10.7226 7.529,2.5119 17.8944,10.3715 22.6525,17.1767 6.0949,8.7171 7.5677,9.6535 15.1837,9.6535 17.8835,0 37.119,8.2646 50.7935,21.8236 8.9031,8.8278 23.3703,29.7613 23.3703,33.8158 0,1.4415 -57.1703,1.7227 -323.3334,1.5904 -204.5926,-0.1013 -323.3333,-0.6286 -323.3333,-1.435 0,-2.1343 10.1002,-16.0466 16.9117,-23.2948 15.4975,-16.491 38.2638,-25.4687 74.0506,-29.2012 4.9293,-0.5142 9.4801,-1.6167 10.113,-2.4502 0.633,-0.8334 1.899,-5.1153 2.8134,-9.5153 4.8353,-23.2677 23.1754,-40.4889 46.1545,-43.3387 9.4,-1.1657 9.6732,-1.3585 14.1708,-9.9946 9.9373,-19.0815 26.4705,-35.395 44.786,-44.1906 6.7833,-3.2576 12.3333,-6.4305 12.3333,-7.051 0,-1.1003 -236.853,-191.7483 -244.0879,-196.4716 -3.6024,-2.3518 -3.6783,-2.3379 -6.4454,1.1798 -1.54,1.9578 -2.7784,4.2287 -2.7521,5.0466 0.026,0.8177 7.2117,9.5129 15.9675,19.3226 17.2294,19.3034 20.7311,25.6334 22.1148,39.976 0.9041,9.3723 -2.8775,24.7143 -9.5772,38.8548 -8.6717,18.3028 -114.1501,220.511 -120.0922,230.2236 -15.2068,24.8564 -40.0221,36.8752 -63.2217,30.6199 z m -2.0135,-689.8821 c 23.8926,-23.6712 43.4411,-43.6098 43.4411,-44.3079 0,-2.3733 -5.9687,-2.7381 -38.651,-2.3623 l -32.6509,0.3755 -9.6508,42 c -10.2251,44.4995 -10.8737,48.4597 -7.8217,47.7644 1.0407,-0.2371 21.4407,-19.7984 45.3333,-43.4697 z m 339.4411,-14.5435 c -16.7095,-2.7686 -34.2771,-12.2712 -46.7488,-25.2872 -10.0196,-10.4568 -15.6988,-19.8001 -20.1383,-33.1307 -4.4671,-13.4133 -4.4671,-37.2533 0,-50.6666 4.7484,-14.2583 10.3123,-22.9852 22.1116,-34.6818 12.172,-12.066 22.2037,-17.7466 38.8661,-22.0081 37.2018,-9.5146 78.0631,9.4088 95.0592,44.0232 12.5316,25.5218 12.5372,50.4234 0.017,76 -7.1406,14.587 -22.5826,30.4549 -36.0442,37.0383 -16.2005,7.9227 -37.1518,11.3591 -53.1226,8.7129 z M 8.8313848,2163.2817 c -1.286638,-3.3529 -0.9070805,-4.218 0.6647119,-1.515 0.7782533,1.3384 1.1341313,2.7142 0.7908403,3.0574 -0.3432923,0.3434 -0.9982906,-0.3508 -1.4555522,-1.5424 z m -3.3927883,-10.7261 c 0.063979,-1.5533 0.3799204,-1.8692 0.8055555,-0.8056 0.3851608,0.9625 0.3377924,2.1125 -0.1052627,2.5556 -0.4430556,0.4431 -0.7581872,-0.3445 -0.7002928,-1.75 z m -1.2280702,-5.8889 c 0,-1.8334 0.3026316,-2.5834 0.6725146,-1.6667 0.3698831,0.9167 0.3698831,2.4167 0,3.3333 -0.369883,0.9167 -0.6725146,0.1667 -0.6725146,-1.6666 z m 2550.6666737,-4 c 0,-1.8334 0.3027,-2.5834 0.6725,-1.6667 0.3699,0.9167 0.3699,2.4167 0,3.3333 -0.3698,0.9167 -0.6725,0.1667 -0.6725,-1.6666 z M 1.0692051,2136.8331 c -0.73394345,-8.8504 0.2774577,-30.1664 1.4313304,-30.1663 1.0569981,0 1.0159404,35.5945 -0.042279,36.6527 -0.4322793,0.4324 -1.0573527,-2.4866 -1.3890514,-6.4864 z M 2556.6221,2119.9999 c -0.024,-9.5332 0.4256,-17.3332 1,-17.3332 0.5746,0 1.0446,7.8 1.0446,17.3333 0,9.5333 -0.45,17.3333 -1,17.3332 -0.55,0 -1.02,-7.8 -1.0446,-17.3333 z M 4.2105263,2102.6667 c 0,-1.8334 0.3026316,-2.5834 0.6725146,-1.6667 0.3698831,0.9167 0.3698831,2.4167 0,3.3333 -0.369883,0.9167 -0.6725146,0.1667 -0.6725146,-1.6666 z M 2553.7124,2093.1015 c -0.8717,-4.5871 -1.3671,-8.5579 -1.1008,-8.8242 0.7743,-0.7744 3.7859,13.8635 3.2087,15.5954 -0.2876,0.8628 -1.2362,-2.1843 -2.1079,-6.7712 z M 5.5599537,2095.3333 c -0.021556,-1.4666 0.4764647,-3.8666 1.106713,-5.3333 1.4600129,-3.3976 1.4600129,0.108 0,4.6667 -0.8581714,2.6796 -1.075206,2.8104 -1.106713,0.6666 z m 3.960807,-14 c 0,-1.1 0.5156573,-3.2 1.1459063,-4.6666 0.722286,-1.6808 1.145906,-1.9274 1.145906,-0.6667 0,1.1 -0.515658,3.2 -1.145906,4.6667 -0.7222871,1.6808 -1.1459063,1.9273 -1.1459063,0.6666 z M 2550.7719,2080.5556 c 0.064,-1.5533 0.38,-1.8692 0.8056,-0.8056 0.3852,0.9625 0.3378,2.1125 -0.1054,2.5556 -0.443,0.4431 -0.7582,-0.3445 -0.7004,-1.75 z M 12.040834,2072.6667 c 0,-0.7334 0.581625,-2.2334 1.292499,-3.3334 0.710875,-1.1 1.292499,-1.4 1.292499,-0.6666 0,0.7333 -0.581624,2.2333 -1.292499,3.3333 -0.710874,1.1 -1.292499,1.4 -1.292499,0.6667 z m 2534.123866,-5.385 c -1.2866,-3.3529 -0.9071,-4.218 0.6648,-1.515 0.7782,1.3384 1.1341,2.7142 0.7908,3.0574 -0.3434,0.3434 -0.9983,-0.3508 -1.4556,-1.5424 z M 14.707501,2066 c 0,-0.7333 0.581624,-2.2333 1.292499,-3.3333 0.710875,-1.1 1.292499,-1.4 1.292499,-0.6667 0,0.7333 -0.581624,2.2333 -1.292499,3.3333 -0.710875,1.1 -1.292499,1.4 -1.292499,0.6667 z M 2543.498,2060.6151 c -1.2865,-3.353 -0.9071,-4.218 0.6648,-1.5151 0.7783,1.3384 1.1341,2.7143 0.7908,3.0575 -0.3433,0.3433 -0.9983,-0.3508 -1.4556,-1.5424 z M 17.427828,2059.3333 c 0,-0.7333 0.857477,-2.8333 1.905505,-4.6666 1.048028,-1.8334 1.905506,-2.7334 1.905506,-2 0,0.7333 -0.857478,2.8333 -1.905506,4.6666 -1.048028,1.8334 -1.905505,2.7334 -1.905505,2 z M 2536.9468,2045.9531 c -2.7088,-5.4742 -4.6375,-9.9531 -4.286,-9.9531 0.8907,0 10.288,18.8289 9.6939,19.4231 -0.2656,0.2657 -2.6992,-3.9959 -5.4079,-9.47 z M 26.827281,2039.6667 c 5.426422,-10.7694 146.414519,-254.5736 148.233409,-256.3334 1.86427,-1.8036 3.62244,-4.8749 -74.03729,129.3334 -37.766624,65.2666 -70.555507,122.4166 -72.864187,127 -2.30868,4.5833 -4.4976,8.3333 -4.864266,8.3333 -0.366667,0 1.222884,-3.75 3.532334,-8.3333 z m 2502.369819,-8 c -0.8599,-1.65 -3.0798,-5.7 -4.933,-9 -1.8533,-3.3 -2.7369,-5.4 -1.9636,-4.6667 1.9391,1.8389 10.1303,16.6667 9.207,16.6667 -0.4108,0 -1.4506,-1.35 -2.3104,-3 z M 2519.6024,2015 c -0.3053,-0.55 -2.2395,-4 -4.2981,-7.6667 -2.0588,-3.6666 -3.1242,-6.0666 -2.3676,-5.3333 1.9292,1.8701 8.8046,14 7.9353,14 -0.3931,0 -0.9644,-0.45 -1.2696,-1 z m -9.3333,-16 c -0.3054,-0.55 -2.2395,-4 -4.2982,-7.6667 -2.0588,-3.6666 -3.1241,-6.0666 -2.3676,-5.3333 1.9292,1.8701 8.8047,14 7.9354,14 -0.3931,0 -0.9644,-0.45 -1.2696,-1 z m -24.3088,-42 c -17.8599,-30.7879 -17.506,-30.1479 -15.6664,-28.3333 0.9834,0.9701 25.1125,41.971 31.975,54.3333 0.3054,0.55 0.2848,1 -0.045,1 -0.3303,0 -7.6488,-12.15 -16.2631,-27 z m -18.3579,-31.3333 c -0.3053,-0.55 -2.2395,-4 -4.2981,-7.6667 -2.0588,-3.6667 -3.1242,-6.0667 -2.3676,-5.3333 1.9292,1.8701 8.8046,14 7.9353,14 -0.3931,0 -0.9644,-0.45 -1.2696,-1 z m -9.3333,-16 c -0.3054,-0.55 -2.2395,-4 -4.2982,-7.6667 -2.0588,-3.6667 -3.1241,-6.0667 -2.3676,-5.3333 1.9292,1.8701 8.8047,14 7.9354,14 -0.3931,0 -0.9644,-0.45 -1.2696,-1 z m -9.3334,-16 c -0.3053,-0.55 -2.2394,-4 -4.2981,-7.6667 -2.0588,-3.6667 -3.1241,-6.0667 -2.3676,-5.3333 1.9292,1.8701 8.8047,14 7.9353,14 -0.393,0 -0.9644,-0.45 -1.2696,-1 z m -9.3333,-16 c -0.3053,-0.55 -2.2395,-4 -4.2981,-7.6667 -2.0588,-3.6667 -3.1242,-6.0667 -2.3676,-5.3333 1.9292,1.8701 8.8046,14 7.9353,14 -0.3931,0 -0.9644,-0.45 -1.2696,-1 z m -19.6489,-34 c -6.0419,-10.45 -11.2386,-19.45 -11.5482,-20 -0.3094,-0.55 -0.2885,-1 0.047,-1 0.4541,0 14.7997,24.175 23.1428,39 0.3095,0.55 0.2885,1 -0.047,1 -0.335,0 -5.5526,-8.55 -11.5946,-19 z m -13.6844,-23.3334 c -0.3054,-0.55 -2.2395,-4 -4.2982,-7.6666 -2.0588,-3.6667 -3.1241,-6.0667 -2.3676,-5.3334 1.9292,1.8702 8.8047,14 7.9354,14 -0.3931,0 -0.9644,-0.45 -1.2696,-1 z m -9.3334,-16 c -0.3053,-0.55 -2.2394,-4 -4.2981,-7.6666 -2.0588,-3.6667 -3.1241,-6.0667 -2.3676,-5.3334 1.9292,1.8702 8.8047,14 7.9353,14 -0.393,0 -0.9644,-0.45 -1.2696,-1 z m -9.3333,-16 c -0.3053,-0.55 -2.2395,-4 -4.2981,-7.6666 -2.0588,-3.6667 -3.1242,-6.0667 -2.3676,-5.3334 1.9292,1.8702 8.8046,14 7.9353,14 -0.3931,0 -0.9644,-0.45 -1.2696,-1 z m -2211.19305,-8 c 8.74446,-15.4296 13.28206,-23 13.78604,-23 0.34576,0 0.37362,0.45 0.062,1 -8.74447,15.4296 -13.28207,23 -13.78604,23 -0.34576,0 -0.37363,-0.45 -0.062,-1 z m 2201.85975,-8 c -0.3054,-0.55 -2.2395,-4 -4.2982,-7.6666 -2.0588,-3.6667 -3.1241,-6.0667 -2.3676,-5.3334 1.9292,1.8702 8.8047,14 7.9354,14 -0.3931,0 -0.9644,-0.45 -1.2696,-1 z m -24.3088,-42 c -17.8599,-30.7878 -17.506,-30.1478 -15.6664,-28.3333 0.9834,0.9701 25.1125,41.9711 31.975,54.3333 0.3054,0.55 0.2848,1 -0.045,1 -0.3303,0 -7.6488,-12.15 -16.2631,-27 z M 191.07601,1755 c 8.74447,-15.4296 13.28207,-23 13.78604,-23 0.34576,0 0.37363,0.45 0.062,1 -8.74446,15.4296 -13.28206,23 -13.78604,23 -0.34576,0 -0.37362,-0.45 -0.062,-1 z m 14.66667,-25.3333 c 8.74447,-15.4296 13.28207,-23 13.78604,-23 0.34576,0 0.37363,0.45 0.062,1 -8.74447,15.4296 -13.28207,23 -13.78604,23 -0.34576,0 -0.37363,-0.45 -0.062,-1 z m 14.66667,-25.3334 c 8.74446,-15.4296 13.28206,-23 13.78604,-23 0.34576,0 0.37362,0.45 0.062,1 -8.74447,15.4296 -13.28207,23 -13.78604,23 -0.34576,0 -0.37363,-0.45 -0.062,-1 z M 2335.6024,1699 c -0.3053,-0.55 -2.2395,-4 -4.2981,-7.6667 -2.0588,-3.6666 -3.1242,-6.0666 -2.3676,-5.3333 1.9292,1.8701 8.8046,14 7.9353,14 -0.3931,0 -0.9644,-0.45 -1.2696,-1 z m -9.3333,-16 c -0.3054,-0.55 -2.2395,-4 -4.2982,-7.6667 -2.0588,-3.6666 -3.1241,-6.0666 -2.3676,-5.3333 1.9292,1.8701 8.8047,14 7.9354,14 -0.3931,0 -0.9644,-0.45 -1.2696,-1 z m -2091.19309,-4 c 8.74447,-15.4296 13.28207,-23 13.78604,-23 0.34576,0 0.37363,0.45 0.062,1 -8.74446,15.4296 -13.28206,23 -13.78604,23 -0.34576,0 -0.37362,-0.45 -0.062,-1 z m 2081.85969,-12 c -0.3053,-0.55 -2.2394,-4 -4.2981,-7.6667 -2.0588,-3.6666 -3.1241,-6.0666 -2.3676,-5.3333 1.9292,1.8701 8.8047,14 7.9353,14 -0.393,0 -0.9644,-0.45 -1.2696,-1 z M 249.74268,1653.6667 c 8.74447,-15.4296 13.28207,-23 13.78604,-23 0.34576,0 0.37363,0.45 0.062,1 -8.74447,15.4296 -13.28207,23 -13.78604,23 -0.34576,0 -0.37363,-0.45 -0.062,-1 z M 2307.6024,1651 c -0.3053,-0.55 -2.2395,-4 -4.2981,-7.6667 -2.0588,-3.6666 -3.1242,-6.0666 -2.3676,-5.3333 1.9292,1.8701 8.8046,14 7.9353,14 -0.3931,0 -0.9644,-0.45 -1.2696,-1 z m -24.3088,-42 c -17.8599,-30.7879 -17.506,-30.1479 -15.6664,-28.3333 0.9835,0.9701 25.1125,41.971 31.9751,54.3333 0.3053,0.55 0.2848,1 -0.045,1 -0.3302,0 -7.6488,-12.15 -16.263,-27 z m -2018.88425,19.3333 c 8.74446,-15.4296 13.28206,-23 13.78604,-23 0.34576,0 0.37362,0.45 0.062,1 -8.74447,15.4296 -13.28207,23 -13.78604,23 -0.34576,0 -0.37363,-0.45 -0.062,-1 z M 279.07601,1603 c 8.74447,-15.4296 13.28207,-23 13.78604,-23 0.34576,0 0.37363,0.45 0.062,1 -8.74446,15.4296 -13.28206,23 -13.78604,23 -0.34576,0 -0.37362,-0.45 -0.062,-1 z m 14.66667,-25.3333 c 8.74447,-15.4296 13.28207,-23 13.78604,-23 0.34576,0 0.37363,0.45 0.062,1 -8.74447,15.4296 -13.28207,23 -13.78604,23 -0.34576,0 -0.37363,-0.45 -0.062,-1 z m 1971.19302,0 c -0.3053,-0.55 -2.2394,-4 -4.2981,-7.6667 -2.0588,-3.6667 -3.1241,-6.0667 -2.3676,-5.3333 1.9292,1.8701 8.8047,14 7.9353,14 -0.393,0 -0.9644,-0.45 -1.2696,-1 z m -9.3333,-16 c -0.3053,-0.55 -2.2395,-4 -4.2981,-7.6667 -2.0588,-3.6667 -3.1242,-6.0667 -2.3676,-5.3333 1.9292,1.8701 8.8046,14 7.9353,14 -0.3931,0 -0.9644,-0.45 -1.2696,-1 z m -1947.19305,-9.3334 c 8.74446,-15.4296 13.28206,-23 13.78604,-23 0.34576,0 0.37362,0.45 0.062,1 -8.74447,15.4296 -13.28207,23 -13.78604,23 -0.34576,0 -0.37363,-0.45 -0.062,-1 z m 1937.85975,-6.6666 c -0.3054,-0.55 -2.2395,-4 -4.2982,-7.6667 -2.0588,-3.6667 -3.1241,-6.0667 -2.3676,-5.3333 1.9292,1.8701 8.8047,14 7.9354,14 -0.3931,0 -0.9644,-0.45 -1.2696,-1 z m -9.3334,-16 c -0.3053,-0.55 -2.2394,-4 -4.2981,-7.6667 -2.0588,-3.6667 -3.1241,-6.0667 -2.3676,-5.3333 1.9292,1.8701 8.8047,14 7.9353,14 -0.393,0 -0.9644,-0.45 -1.2696,-1 z M 323.07601,1527 c 8.74447,-15.4296 13.28207,-23 13.78604,-23 0.34576,0 0.37363,0.45 0.062,1 -8.74446,15.4296 -13.28206,23 -13.78604,23 -0.34576,0 -0.37362,-0.45 -0.062,-1 z m 1894.21079,-31.3333 c -6.0419,-10.45 -11.2385,-19.45 -11.5481,-20 -0.3095,-0.55 -0.2886,-1 0.047,-1 0.4542,0 14.7998,24.175 23.1428,39 0.3095,0.55 0.2886,1 -0.047,1 -0.3351,0 -5.5527,-8.55 -11.5947,-19 z m -1879.54412,6 c 8.74447,-15.4296 13.28207,-23 13.78604,-23 0.34576,0 0.37363,0.45 0.0619,1 -8.74447,15.4296 -13.28207,23 -13.78604,23 -0.34576,0 -0.37363,-0.45 -0.062,-1 z m 14.66667,-25.3334 c 8.74446,-15.4296 13.28206,-23 13.78604,-23 0.34576,0 0.37362,0.45 0.0619,1 -8.74446,15.4296 -13.28206,23 -13.78604,23 -0.34576,0 -0.37362,-0.45 -0.0619,-1 z m 1851.19305,-4 c -0.3053,-0.55 -2.2395,-4 -4.2981,-7.6666 -2.0588,-3.6667 -3.1242,-6.0667 -2.3676,-5.3334 1.9292,1.8702 8.8046,14 7.9353,14 -0.3931,0 -0.9644,-0.45 -1.2696,-1 z m -9.3333,-16 c -0.3054,-0.55 -2.2395,-4 -4.2982,-7.6666 -2.0588,-3.6667 -3.1241,-6.0667 -2.3676,-5.3334 1.9292,1.8702 8.8047,14 7.9354,14 -0.3931,0 -0.9644,-0.45 -1.2696,-1 z m -1827.31633,-5 c 3.10122,-6.1049 47.03247,-81.6376 48.0805,-82.6666 0.90529,-0.889 1.13217,-0.889 0.68062,0 -3.10121,6.1049 -47.03246,81.6376 -48.08049,82.6666 -0.90529,0.889 -1.13217,0.889 -0.68063,0 z m 1817.98293,-11 c -0.3053,-0.55 -2.2394,-4 -4.2981,-7.6666 -2.0588,-3.6667 -3.1241,-6.0667 -2.3676,-5.3334 1.9292,1.8702 8.8047,14 7.9353,14 -0.393,0 -0.9644,-0.45 -1.2696,-1 z m -9.3333,-16 c -0.3053,-0.55 -2.2395,-4 -4.2981,-7.6666 -2.0588,-3.6667 -3.1242,-6.0667 -2.3676,-5.3334 1.9292,1.8702 8.8046,14 7.9353,14 -0.3931,0 -0.9644,-0.45 -1.2696,-1 z m -24.3088,-42 c -17.8599,-30.7878 -17.506,-30.1478 -15.6664,-28.3333 0.9835,0.9701 25.1125,41.9711 31.9751,54.3333 0.3053,0.55 0.2848,1 -0.045,1 -0.3302,0 -7.6488,-12.15 -16.263,-27 z M 416.40935,1365.6667 c 8.74446,-15.4296 13.28206,-23 13.78604,-23 0.34576,0 0.37362,0.45 0.0619,1 -8.74446,15.4296 -13.28206,23 -13.78604,23 -0.34576,0 -0.37362,-0.45 -0.0619,-1 z M 2132.9357,1351 c -0.3053,-0.55 -2.2394,-4 -4.2981,-7.6667 -2.0588,-3.6666 -3.1241,-6.0666 -2.3676,-5.3333 1.9292,1.8701 8.8047,14 7.9353,14 -0.393,0 -0.9644,-0.45 -1.2696,-1 z M 431.07601,1340.3333 c 8.74447,-15.4296 13.28207,-23 13.78604,-23 0.34576,0 0.37363,0.45 0.0619,1 -8.74447,15.4296 -13.28207,23 -13.78604,23 -0.34576,0 -0.37363,-0.45 -0.0619,-1 z M 2123.6024,1335 c -0.3053,-0.55 -2.2395,-4 -4.2981,-7.6667 -2.0588,-3.6666 -3.1242,-6.0666 -2.3676,-5.3333 1.9292,1.8701 8.8046,14 7.9353,14 -0.3931,0 -0.9644,-0.45 -1.2696,-1 z m -9.3333,-16 c -0.3054,-0.55 -2.2395,-4 -4.2982,-7.6667 -2.0588,-3.6666 -3.1241,-6.0666 -2.3676,-5.3333 1.9292,1.8701 8.8047,14 7.9354,14 -0.3931,0 -0.9644,-0.45 -1.2696,-1 z m -1668.52642,-4 c 8.74447,-15.4297 13.28207,-23 13.78604,-23 0.34576,0 0.37363,0.45 0.0619,1 -8.74447,15.4297 -13.28207,23 -13.78604,23 -0.34576,0 -0.37363,-0.45 -0.0619,-1 z m 1659.19302,-12 c -0.3053,-0.55 -2.2394,-4 -4.2981,-7.6667 -2.0588,-3.6666 -3.1241,-6.0666 -2.3676,-5.3333 1.9292,1.8701 8.8047,14 7.9353,14 -0.393,0 -0.9644,-0.45 -1.2696,-1 z M 460.40935,1289.6667 c 8.74446,-15.4297 13.28206,-23 13.78604,-23 0.34576,0 0.37362,0.45 0.0619,1 -8.74446,15.4296 -13.28206,23 -13.78604,23 -0.34576,0 -0.37362,-0.45 -0.0619,-1 z M 2080.6269,1261 c -17.8598,-30.7878 -17.506,-30.1479 -15.6664,-28.3333 0.9835,0.97 25.1126,41.971 31.9751,54.3333 0.3053,0.55 0.2848,1 -0.045,1 -0.3303,0 -7.6488,-12.15 -16.2631,-27 z m -1605.55089,3.3333 c 8.74447,-15.4296 13.28207,-23 13.78604,-23 0.34576,0 0.37363,0.45 0.0619,1 -8.74447,15.4297 -13.28207,23 -13.78604,23 -0.34576,0 -0.37363,-0.45 -0.0619,-1 z M 489.74268,1239 c 8.74447,-15.4297 13.28207,-23 13.78604,-23 0.34576,0 0.37363,0.45 0.0619,1 -8.74447,15.4297 -13.28207,23 -13.78604,23 -0.34576,0 -0.37363,-0.45 -0.0619,-1 z m 1572.52642,-9.3333 c -0.3054,-0.55 -2.2395,-4 -4.2982,-7.6667 -2.0588,-3.6667 -3.1241,-6.0667 -2.3676,-5.3333 1.9292,1.8701 8.8047,14 7.9354,14 -0.3931,0 -0.9644,-0.45 -1.2696,-1 z m -1557.85975,-16 c 8.74446,-15.4297 13.28206,-23 13.78604,-23 0.34576,0 0.37362,0.45 0.0619,1 -8.74446,15.4296 -13.28206,23 -13.78604,23 -0.34576,0 -0.37362,-0.45 -0.0619,-1 z m 1548.52635,0 c -0.3053,-0.55 -2.2394,-4 -4.2981,-7.6667 -2.0588,-3.6667 -3.1241,-6.0667 -2.3676,-5.3333 1.9292,1.8701 8.8047,14 7.9353,14 -0.393,0 -0.9644,-0.45 -1.2696,-1 z m -9.3333,-16 c -0.3053,-0.55 -2.2395,-4 -4.2981,-7.6667 -2.0588,-3.6667 -3.1242,-6.0667 -2.3676,-5.3333 1.9292,1.8701 8.8046,14 7.9353,14 -0.3931,0 -0.9644,-0.45 -1.2696,-1 z m -1524.52639,-9.3334 c 8.74447,-15.4296 13.28207,-23 13.78604,-23 0.34576,0 0.37363,0.45 0.0619,1 -8.74447,15.4297 -13.28207,23 -13.78604,23 -0.34576,0 -0.37363,-0.45 -0.0619,-1 z m 1495.55469,-40.6666 c -22.8591,-39.3442 -22.2056,-38.1766 -20.3367,-36.3334 0.9713,0.958 34.2257,57.5787 41.3081,70.3334 0.3054,0.55 0.2871,1 -0.04,1 -0.3277,0 -9.7466,-15.75 -20.9309,-35 z M 533.74268,1163 c 8.74447,-15.4297 13.28207,-23 13.78604,-23 0.34576,0 0.37363,0.45 0.0619,1 -8.74447,15.4297 -13.28207,23 -13.78604,23 -0.34576,0 -0.37363,-0.45 -0.0619,-1 z m 14.66667,-25.3333 c 8.74446,-15.4297 13.28206,-23 13.78604,-23 0.34576,0 0.37362,0.45 0.0619,1 -8.74446,15.4296 -13.28206,23 -13.78604,23 -0.34576,0 -0.37362,-0.45 -0.0619,-1 z m 14.66666,-25.3334 c 8.74447,-15.4296 13.28207,-23 13.78604,-23 0.34576,0 0.37363,0.45 0.0619,1 -8.74447,15.4297 -13.28207,23 -13.78604,23 -0.34576,0 -0.37363,-0.45 -0.0619,-1 z m 1428.52639,-4 c -0.3053,-0.55 -2.2395,-4 -4.2981,-7.6666 -2.0588,-3.6667 -3.1242,-6.0667 -2.3676,-5.3334 1.9292,1.8702 8.8046,14 7.9353,14 -0.3931,0 -0.9644,-0.45 -1.2696,-1 z m -9.3333,-16 c -0.3054,-0.55 -2.2395,-4 -4.2982,-7.6666 -2.0588,-3.6667 -3.1241,-6.0667 -2.3676,-5.3334 1.9292,1.8702 8.8047,14 7.9354,14 -0.3931,0 -0.9644,-0.45 -1.2696,-1 z M 577.74268,1087 c 8.74447,-15.4297 13.28207,-23 13.78604,-23 0.34576,0 0.37363,0.45 0.0619,1 -8.74447,15.4297 -13.28207,23 -13.78604,23 -0.34576,0 -0.37363,-0.45 -0.0619,-1 z m 1395.19302,-10.6667 c -0.3053,-0.55 -2.2394,-4 -4.2981,-7.6666 -2.0588,-3.6667 -3.1241,-6.0667 -2.3676,-5.3334 1.9292,1.8702 8.8047,14 7.9353,14 -0.393,0 -0.9644,-0.45 -1.2696,-1 z M 592.40935,1061.6667 c 8.74446,-15.4297 13.28206,-23 13.78604,-23 0.34576,0 0.37362,0.45 0.0619,1 -8.74446,15.4296 -13.28206,23 -13.78604,23 -0.34576,0 -0.37362,-0.45 -0.0619,-1 z m 1356.21755,-27.3334 c -17.8598,-30.7878 -17.506,-30.1478 -15.6664,-28.3333 0.9835,0.9701 25.1126,41.9711 31.9751,54.3333 0.3053,0.55 0.2848,1 -0.045,1 -0.3303,0 -7.6488,-12.15 -16.2631,-27 z m -1341.55089,2 c 8.74447,-15.4296 13.28207,-23 13.78604,-23 0.34576,0 0.37363,0.45 0.0619,1 -8.74447,15.4297 -13.28207,23 -13.78604,23 -0.34576,0 -0.37363,-0.45 -0.0619,-1 z M 621.74268,1011 c 8.74447,-15.42965 13.28207,-23 13.78604,-23 0.34576,0 0.37363,0.45 0.0619,1 -8.74447,15.4297 -13.28207,23 -13.78604,23 -0.34576,0 -0.37363,-0.45 -0.0619,-1 z m 1308.52642,-8 c -0.3054,-0.55 -2.2395,-4 -4.2982,-7.66667 -2.0588,-3.66666 -3.1241,-6.06666 -2.3676,-5.33333 1.9292,1.87013 8.8047,14 7.9354,14 -0.3931,0 -0.9644,-0.45 -1.2696,-1 z m -9.3334,-16 c -0.3053,-0.55 -2.2394,-4 -4.2981,-7.66667 -2.0588,-3.66666 -3.1241,-6.06666 -2.3676,-5.33333 1.9292,1.87013 8.8047,14 7.9353,14 -0.393,0 -0.9644,-0.45 -1.2696,-1 z M 636.40935,985.66667 c 8.74446,-15.42966 13.28206,-23 13.78604,-23 0.34576,0 0.37362,0.45 0.0619,1 -8.74446,15.42965 -13.28206,23 -13.78604,23 -0.34576,0 -0.37362,-0.45 -0.0619,-1 z M 1911.6024,971 c -0.3053,-0.55 -2.2395,-4 -4.2981,-7.66667 -2.0588,-3.66666 -3.1242,-6.06666 -2.3676,-5.33333 1.9292,1.87013 8.8046,14 7.9353,14 -0.3931,0 -0.9644,-0.45 -1.2696,-1 z M 651.07601,960.33333 c 8.74447,-15.42965 13.28207,-23 13.78604,-23 0.34576,0 0.37363,0.45 0.0619,1 -8.74447,15.42966 -13.28207,23 -13.78604,23 -0.34576,0 -0.37363,-0.45 -0.0619,-1 z M 1902.2691,955 c -0.3054,-0.55 -2.2395,-4 -4.2982,-7.66667 -2.0588,-3.66666 -3.1241,-6.06666 -2.3676,-5.33333 1.9292,1.87013 8.8047,14 7.9354,14 -0.3931,0 -0.9644,-0.45 -1.2696,-1 z m -24.3088,-42 c -17.8599,-30.78783 -17.506,-30.14785 -15.6664,-28.33333 0.9834,0.97006 25.1125,41.97108 31.975,54.33333 0.3054,0.55 0.2848,1 -0.045,1 -0.3303,0 -7.6488,-12.15 -16.2631,-27 z M 665.74268,935 c 8.74447,-15.42965 13.28207,-23 13.78604,-23 0.34576,0 0.37363,0.45 0.0619,1 -8.74447,15.42965 -13.28207,23 -13.78604,23 -0.34576,0 -0.37363,-0.45 -0.0619,-1 z m 14.66667,-25.33333 c 8.74446,-15.42966 13.28206,-23 13.78604,-23 0.34576,0 0.37362,0.45 0.062,1 -8.74447,15.42965 -13.28207,23 -13.78604,23 -0.34576,0 -0.37363,-0.45 -0.0619,-1 z m 16.25732,-28.33334 c 1.13766,-2.2 2.36848,-4 2.73514,-4 0.36667,0 -0.26414,1.8 -1.40181,4 -1.13767,2.2 -2.36848,4 -2.73515,4 -0.36666,0 0.26415,-1.8 1.40182,-4 z m 1162.93573,0.33334 c -0.3053,-0.55 -2.2395,-4 -4.2981,-7.66667 -2.0588,-3.66667 -3.1242,-6.06667 -2.3676,-5.33333 1.9292,1.87013 8.8046,14 7.9353,14 -0.3931,0 -0.9644,-0.45 -1.2696,-1 z M 703.29117,870 c 2.05151,-3.66667 4.34899,-7.26667 5.10552,-8 0.75652,-0.73333 -0.30301,1.66667 -2.35453,5.33333 -2.05151,3.66667 -4.34899,7.26667 -5.10552,8 -0.75652,0.73334 0.30301,-1.66666 2.35453,-5.33333 z m 1146.97793,-4.33333 c -0.3054,-0.55 -2.2395,-4 -4.2982,-7.66667 -2.0588,-3.66667 -3.1241,-6.06667 -2.3676,-5.33333 1.9292,1.87013 8.8047,14 7.9354,14 -0.3931,0 -0.9644,-0.45 -1.2696,-1 z M 711.33333,856 c 1.13767,-2.2 2.36848,-4 2.73515,-4 0.36667,0 -0.26415,1.8 -1.40181,4 -1.13767,2.2 -2.36848,4 -2.73515,4 -0.36667,0 0.26415,-1.8 1.40181,-4 z m 3.74268,-6.33333 c 8.74447,-15.42966 13.28207,-23 13.78604,-23 0.34576,0 0.37363,0.45 0.062,1 -8.74446,15.42965 -13.28206,23 -13.78604,23 -0.34576,0 -0.37362,-0.45 -0.062,-1 z m 1125.85969,0 c -0.3053,-0.55 -2.2394,-4 -4.2981,-7.66667 -2.0588,-3.66667 -3.1241,-6.06667 -2.3676,-5.33333 1.9292,1.87013 8.8047,14 7.9353,14 -0.393,0 -0.9644,-0.45 -1.2696,-1 z m -28.9717,-50 c -22.8591,-39.34418 -22.2056,-38.17662 -20.3367,-36.33334 0.9714,0.95794 34.2258,57.57867 41.3082,70.33334 0.3053,0.55 0.287,1 -0.04,1 -0.3278,0 -9.7467,-15.75 -20.931,-35 z M 729.74268,824.33333 c 8.74447,-15.42965 13.28207,-23 13.78604,-23 0.34576,0 0.37363,0.45 0.062,1 -8.74447,15.42966 -13.28207,23 -13.78604,23 -0.34576,0 -0.37363,-0.45 -0.062,-1 z M 744.40935,799 c 8.74446,-15.42965 13.28206,-23 13.78604,-23 0.34576,0 0.37362,0.45 0.062,1 -8.74447,15.42965 -13.28207,23 -13.78604,23 -0.34576,0 -0.37363,-0.45 -0.062,-1 z m 14.66666,-25.33333 c 8.74447,-15.42966 13.28207,-23 13.78604,-23 0.34576,0 0.37363,0.45 0.062,1 -8.74446,15.42965 -13.28206,23 -13.78604,23 -0.34576,0 -0.37362,-0.45 -0.062,-1 z M 1788.9357,760.33333 c -0.3053,-0.55 -2.2394,-4 -4.2981,-7.66666 -2.0588,-3.66667 -3.1241,-6.06667 -2.3676,-5.33334 1.9292,1.87014 8.8047,14 7.9353,14 -0.393,0 -0.9644,-0.45 -1.2696,-1 z m -1015.19302,-12 c 8.74447,-15.42965 13.28207,-23 13.78604,-23 0.34576,0 0.37363,0.45 0.062,1 -8.74447,15.42966 -13.28207,23 -13.78604,23 -0.34576,0 -0.37363,-0.45 -0.062,-1 z m 1005.85972,-4 c -0.3053,-0.55 -2.2395,-4 -4.2981,-7.66666 -2.0588,-3.66667 -3.1242,-6.06667 -2.3676,-5.33334 1.9292,1.87014 8.8046,14 7.9353,14 -0.3931,0 -0.9644,-0.45 -1.2696,-1 z m -9.3333,-16 c -0.3054,-0.55 -2.2395,-4 -4.2982,-7.66666 -2.0588,-3.66667 -3.1241,-6.06667 -2.3676,-5.33334 1.9292,1.87014 8.8047,14 7.9354,14 -0.3931,0 -0.9644,-0.45 -1.2696,-1 z M 788.40935,723 c 8.74446,-15.42965 13.28206,-23 13.78604,-23 0.34576,0 0.37362,0.45 0.062,1 -8.74447,15.42965 -13.28207,23 -13.78604,23 -0.34576,0 -0.37363,-0.45 -0.062,-1 z m 952.88795,-44.66667 c -22.859,-39.34417 -22.2056,-38.17661 -20.3366,-36.33333 0.9713,0.95793 34.2257,57.57867 41.3081,70.33333 0.3053,0.55 0.2871,1 -0.04,1 -0.3277,0 -9.7467,-15.75 -20.9309,-35 z m -938.22129,19.33334 c 8.74447,-15.42966 13.28207,-23 13.78604,-23 0.34576,0 0.37363,0.45 0.062,1 -8.74446,15.42965 -13.28206,23 -13.78604,23 -0.34576,0 -0.37362,-0.45 -0.062,-1 z m 14.66667,-25.33334 c 8.74447,-15.42965 13.28207,-23 13.78604,-23 0.34576,0 0.37363,0.45 0.062,1 -8.74447,15.42966 -13.28207,23 -13.78604,23 -0.34576,0 -0.37363,-0.45 -0.062,-1 z M 832.40935,647 c 8.74446,-15.42965 13.28206,-23 13.78604,-23 0.34576,0 0.37362,0.45 0.062,1 -8.74447,15.42965 -13.28207,23 -13.78604,23 -0.34576,0 -0.37363,-0.45 -0.062,-1 z m 885.85975,-8 c -0.3054,-0.55 -2.2395,-4 -4.2982,-7.66667 -2.0588,-3.66666 -3.1241,-6.06666 -2.3676,-5.33333 1.9292,1.87013 8.8047,14 7.9354,14 -0.3931,0 -0.9644,-0.45 -1.2696,-1 z m -9.3334,-16 c -0.3053,-0.55 -2.2394,-4 -4.2981,-7.66667 -2.0588,-3.66666 -3.1241,-6.06666 -2.3676,-5.33333 1.9292,1.87013 8.8047,14 7.9353,14 -0.393,0 -0.9644,-0.45 -1.2696,-1 z m -861.85969,-1.33333 c 8.74447,-15.42966 13.28207,-23 13.78604,-23 0.34576,0 0.37363,0.45 0.062,1 -8.74446,15.42965 -13.28206,23 -13.78604,23 -0.34576,0 -0.37362,-0.45 -0.062,-1 z M 1699.6024,607 c -0.3053,-0.55 -2.2395,-4 -4.2981,-7.66667 -2.0588,-3.66666 -3.1242,-6.06666 -2.3676,-5.33333 1.9292,1.87013 8.8046,14 7.9353,14 -0.3931,0 -0.9644,-0.45 -1.2696,-1 z M 861.74268,596.33333 c 8.74447,-15.42965 13.28207,-23 13.78604,-23 0.34576,0 0.37363,0.45 0.062,1 -8.74447,15.42966 -13.28207,23 -13.78604,23 -0.34576,0 -0.37363,-0.45 -0.062,-1 z M 1675.2936,565 c -17.8599,-30.78783 -17.506,-30.14785 -15.6664,-28.33333 0.9835,0.97006 25.1125,41.97108 31.9751,54.33333 0.3053,0.55 0.2848,1 -0.045,1 -0.3302,0 -7.6488,-12.15 -16.263,-27 z m -798.88425,6 c 8.74446,-15.42965 13.28206,-23 13.78604,-23 0.34576,0 0.37362,0.45 0.062,1 -8.74447,15.42965 -13.28207,23 -13.78604,23 -0.34576,0 -0.37363,-0.45 -0.062,-1 z m 14.66666,-25.33333 c 8.74447,-15.42966 13.28207,-23 13.78604,-23 0.34576,0 0.37363,0.45 0.062,1 -8.74446,15.42965 -13.28206,23 -13.78604,23 -0.34576,0 -0.37362,-0.45 -0.062,-1 z m 765.85969,-12 c -0.3053,-0.55 -2.2394,-4 -4.2981,-7.66667 -2.0588,-3.66667 -3.1241,-6.06667 -2.3676,-5.33333 1.9292,1.87013 8.8047,14 7.9353,14 -0.393,0 -0.9644,-0.45 -1.2696,-1 z M 905.74268,520.33333 c 8.74447,-15.42965 13.28207,-23 13.78604,-23 0.34576,0 0.37363,0.45 0.062,1 -8.74447,15.42966 -13.28207,23 -13.78604,23 -0.34576,0 -0.37363,-0.45 -0.062,-1 z m 741.85972,-2.66666 c -0.3053,-0.55 -2.2395,-4 -4.2981,-7.66667 -2.0588,-3.66667 -3.1242,-6.06667 -2.3676,-5.33333 1.9292,1.87013 8.8046,14 7.9353,14 -0.3931,0 -0.9644,-0.45 -1.2696,-1 z m -9.3333,-16 c -0.3054,-0.55 -2.2395,-4 -4.2982,-7.66667 -2.0588,-3.66667 -3.1241,-6.06667 -2.3676,-5.33333 1.9292,1.87013 8.8047,14 7.9354,14 -0.3931,0 -0.9644,-0.45 -1.2696,-1 z M 920.40935,495 c 8.74446,-15.42965 13.28206,-23 13.78604,-23 0.34576,0 0.37362,0.45 0.062,1 -8.74447,15.42965 -13.28207,23 -13.78604,23 -0.34576,0 -0.37363,-0.45 -0.062,-1 z m 688.88795,-43.33333 c -22.859,-39.34418 -22.2056,-38.17662 -20.3366,-36.33334 0.9713,0.95794 34.2257,57.57867 41.3081,70.33334 0.3053,0.55 0.2871,1 -0.04,1 -0.3277,0 -9.7467,-15.75 -20.9309,-35 z m -674.22129,18 c 8.74447,-15.42966 13.28207,-23 13.78604,-23 0.34576,0 0.37363,0.45 0.062,1 -8.74446,15.42965 -13.28206,23 -13.78604,23 -0.34576,0 -0.37362,-0.45 -0.062,-1 z m 14.66667,-25.33334 c 8.74447,-15.42965 13.28207,-23 13.78604,-23 0.34576,0 0.37363,0.45 0.062,1 -8.74447,15.42966 -13.28207,23 -13.78604,23 -0.34576,0 -0.37363,-0.45 -0.062,-1 z M 964.40935,419 c 8.74446,-15.42965 13.28206,-23 13.78604,-23 0.34576,0 0.37362,0.45 0.062,1 -8.74447,15.42965 -13.28207,23 -13.78604,23 -0.34576,0 -0.37363,-0.45 -0.062,-1 z m 621.85975,-6.66667 c -0.3054,-0.55 -2.2395,-4 -4.2982,-7.66666 -2.0588,-3.66667 -3.1241,-6.06667 -2.3676,-5.33334 1.9292,1.87014 8.8047,14 7.9354,14 -0.3931,0 -0.9644,-0.45 -1.2696,-1 z m -9.3334,-16 c -0.3053,-0.55 -2.2394,-4 -4.2981,-7.66666 -2.0588,-3.66667 -3.1241,-6.06667 -2.3676,-5.33334 1.9292,1.87014 8.8047,14 7.9353,14 -0.393,0 -0.9644,-0.45 -1.2696,-1 z m -597.85969,-2.66666 c 8.74447,-15.42966 13.28207,-23 13.78604,-23 0.34576,0 0.37363,0.45 0.062,1 -8.74446,15.42965 -13.28206,23 -13.78604,23 -0.34576,0 -0.37362,-0.45 -0.062,-1 z m 588.52639,-13.33334 c -0.3053,-0.55 -2.2395,-4 -4.2981,-7.66666 -2.0588,-3.66667 -3.1242,-6.06667 -2.3676,-5.33334 1.9292,1.87014 8.8046,14 7.9353,14 -0.3931,0 -0.9644,-0.45 -1.2696,-1 z m -573.85972,-12 c 8.74442,-15.42965 13.28202,-23 13.78602,-23 0.3458,0 0.3736,0.45 0.062,1 -8.74445,15.42966 -13.28205,23 -13.78602,23 -0.34576,0 -0.37363,-0.45 -0.062,-1 z m 540.22362,-46 C 1506.1048,274.42225 1507.0725,276.13777 1508.9608,278 c 0.9635,0.95009 43.4139,73.31977 50.6412,86.33333 0.3055,0.55 0.2887,1 -0.037,1 -0.326,0 -11.8454,-19.35 -25.5984,-43 z M 1010,340 c 1.1377,-2.2 2.3685,-4 2.7351,-4 0.3667,0 -0.2641,1.8 -1.4018,4 -1.1376,2.2 -2.3684,4 -2.7351,4 -0.3667,0 0.2641,-1.8 1.4018,-4 z m 6.6245,-11.33333 c 2.0515,-3.66667 4.349,-7.26667 5.1055,-8 0.7565,-0.73334 -0.303,1.66666 -2.3545,5.33333 -2.0515,3.66667 -4.349,7.26667 -5.1055,8 -0.7565,0.73333 0.303,-1.66667 2.3545,-5.33333 z m 8.0422,-14 c 1.1376,-2.2 2.3684,-4 2.7351,-4 0.3667,0 -0.2641,1.8 -1.4018,4 -1.1377,2.2 -2.3685,4 -2.7351,4 -0.3667,0 0.2641,-1.8 1.4018,-4 z m 6.6245,-11.33334 c 2.0515,-3.66666 4.349,-7.26666 5.1055,-8 0.7565,-0.73333 -0.303,1.66667 -2.3545,5.33334 -2.0515,3.66666 -4.349,7.26666 -5.1056,8 -0.7565,0.73333 0.3031,-1.66667 2.3546,-5.33334 z m 8.0421,-14 c 1.1377,-2.2 2.3685,-4 2.7352,-4 0.3666,0 -0.2642,1.8 -1.4018,4 -1.1377,2.2 -2.3685,4 -2.7352,4 -0.3666,0 0.2642,-1.8 1.4018,-4 z M 1045.9578,278 c 2.0515,-3.66667 4.349,-7.26667 5.1056,-8 0.7565,-0.73333 -0.3031,1.66667 -2.3546,5.33333 -2.0515,3.66667 -4.349,7.26667 -5.1055,8 -0.7565,0.73334 0.303,-1.66666 2.3545,-5.33333 z m 460.3113,-3 c -0.3054,-0.55 -2.2395,-4 -4.2982,-7.66667 -2.0588,-3.66666 -3.1241,-6.06666 -2.3676,-5.33333 1.9292,1.87013 8.8047,14 7.9354,14 -0.3931,0 -0.9644,-0.45 -1.2696,-1 z M 1054,264 c 1.1377,-2.2 2.3685,-4 2.7351,-4 0.3667,0 -0.2641,1.8 -1.4018,4 -1.1376,2.2 -2.3684,4 -2.7351,4 -0.3667,0 0.2641,-1.8 1.4018,-4 z m 423.2973,-39 c -22.859,-39.34417 -22.2056,-38.17661 -20.3366,-36.33333 0.9713,0.95793 34.2257,57.57866 41.3081,70.33333 0.3053,0.55 0.2871,1 -0.04,1 -0.3277,0 -9.7467,-15.75 -20.9309,-35 z m -419.5546,32.66667 c 8.7444,-15.42966 13.282,-23 13.786,-23 0.3458,0 0.3736,0.45 0.062,1 -8.7444,15.42965 -13.282,23 -13.786,23 -0.3458,0 -0.3736,-0.45 -0.062,-1 z m 14.6666,-25.33334 c 8.7445,-15.42965 13.2821,-23 13.7861,-23 0.3457,0 0.3736,0.45 0.062,1 -8.7445,15.42966 -13.2821,23 -13.7861,23 -0.3457,0 -0.3736,-0.45 -0.062,-1 z M 1087.076,207 c 8.7445,-15.42965 13.2821,-23 13.7861,-23 0.3457,0 0.3736,0.45 0.062,1 -8.7445,15.42965 -13.2821,23 -13.7861,23 -0.3457,0 -0.3736,-0.45 -0.062,-1 z m 367.1931,-21.33333 c -0.3054,-0.55 -2.2395,-4 -4.2982,-7.66667 -2.0588,-3.66667 -3.1241,-6.06667 -2.3676,-5.33333 1.9292,1.87013 8.8047,14 7.9354,14 -0.3931,0 -0.9644,-0.45 -1.2696,-1 z m -352.5264,-4 c 8.7444,-15.42966 13.282,-23 13.786,-23 0.3458,0 0.3736,0.45 0.062,1 -8.7444,15.42965 -13.282,23 -13.786,23 -0.3458,0 -0.3736,-0.45 -0.062,-1 z m 343.193,-12 c -0.3053,-0.55 -2.2394,-4 -4.2981,-7.66667 -2.0588,-3.66667 -3.1241,-6.06667 -2.3676,-5.33333 1.9292,1.87013 8.8047,14 7.9353,14 -0.393,0 -0.9644,-0.45 -1.2696,-1 z m -328.5264,-13.33334 c 8.7445,-15.42965 13.2821,-23 13.7861,-23 0.3457,0 0.3736,0.45 0.062,1 -8.7445,15.42966 -13.2821,23 -13.7861,23 -0.3457,0 -0.3736,-0.45 -0.062,-1 z m 319.1931,-2.66666 c -0.3053,-0.55 -2.2395,-4 -4.2981,-7.66667 -2.0588,-3.66667 -3.1242,-6.06667 -2.3676,-5.33333 1.9292,1.87013 8.8046,14 7.9353,14 -0.3931,0 -0.9644,-0.45 -1.2696,-1 z m -24.3484,-42 c -19.4959,-33.523726 -28.0712,-46.894522 -36.8124,-57.398031 -7.6435,-9.184683 -24.5019,-24.920395 -32.1083,-29.970223 -5.2952,-3.515448 -6.7542,-5.331123 -2.42,-3.011493 6.7196,3.596274 23.4856,18.325669 31.4908,27.665648 11.5256,13.447352 18.4172,23.741008 35.515,53.047429 21.1089,36.18176 21.3825,36.66667 20.6856,36.66667 -0.3567,0 -7.7146,-12.15 -16.3507,-27 z M 1131.076,131 c 8.7445,-15.42965 13.2821,-23 13.7861,-23 0.3457,0 0.3736,0.45 0.062,1 -8.7445,15.42965 -13.2821,23 -13.7861,23 -0.3457,0 -0.3736,-0.45 -0.062,-1 z m 18.3942,-32 c 18.4354,-32.622265 35.2036,-54.298724 52.6568,-68.070041 10.4918,-8.278504 30.1263,-20.236816 33.2063,-20.224198 0.7334,0.003 -3.6286,2.669607 -9.6933,5.925783 -14.6542,7.867976 -24.0187,15.248805 -38.0372,29.979825 -12.5568,13.195064 -19.8295,23.307928 -32.8809,45.721964 -4.5904,7.883337 -8.6248,14.333337 -8.9652,14.333337 -0.3405,0 1.3306,-3.45 3.7135,-7.66667 z m 180.8631,-81.757448 c -2.75,-1.451775 -5,-2.937452 -5,-3.301504 0,-0.364051 2.4,0.562477 5.3334,2.058952 2.9333,1.496475 5.3333,3.008669 5.3333,3.360432 0,0.872216 -0.013,0.868723 -5.6667,-2.11788 z M 1320,12 c -1.1,-0.710875 -1.4,-1.292499 -0.6667,-1.292499 0.7334,0 2.2334,0.581624 3.3334,1.292499 1.1,0.710875 1.4,1.292499 0.6666,1.292499 C 1322.6,13.292499 1321.1,12.710875 1320,12 Z m -79.3333,-3.3814867 c 2.2,-1.0073632 4.9,-1.8129852 6,-1.7902709 1.1,0.022715 -0.1,0.8500052 -2.6667,1.8384243 -6.0876,2.3443243 -8.4827,2.3097233 -3.3333,-0.048153 z m 72.6666,0.71482 c -1.1,-0.7108745 -1.4,-1.2924993 -0.6666,-1.2924993 0.7333,0 2.2333,0.5816248 3.3333,1.2924993 1.1,0.7108747 1.4,1.2924997 0.6667,1.2924997 -0.7334,0 -2.2334,-0.581625 -3.3334,-1.2924997 z M 1304,6.6666667 c -2.6796,-0.8581714 -2.8104,-1.075206 -0.6667,-1.106713 1.4667,-0.021556 3.8667,0.4764647 5.3334,1.106713 3.3976,1.4600129 -0.1078,1.4600129 -4.6667,0 z M 1250.4167,5.755848 c 0.9625,-0.3851608 2.1125,-0.3377924 2.5555,0.1052627 0.4431,0.4430556 -0.3444,0.7581872 -1.75,0.7002924 -1.5532,-0.063979 -1.8692,-0.3799204 -0.8055,-0.8055551 z m 5.3333,-1.3333333 c 0.9625,-0.3851608 2.1125,-0.3377924 2.5556,0.1052626 0.443,0.4430556 -0.3445,0.7581872 -1.75,0.7002924 -1.5533,-0.063979 -1.8692,-0.3799204 -0.8056,-0.805555 z m 41.3333,0 c 0.9625,-0.3851608 2.1125,-0.3377924 2.5556,0.1052626 0.443,0.4430556 -0.3445,0.7581872 -1.75,0.7002924 -1.5533,-0.063979 -1.8692,-0.3799204 -0.8056,-0.805555 z M 1260,2.5203 c 0,-1.2289585 15.6382,-2.08795393 26,-1.4281633 14.6211,0.9309988 9.6318,2.2394349 -8.6667,2.2728357 C 1267.8,3.3823739 1260,3.0022713 1260,2.5203 Z"
         id="path673" />
      <path
         style="fill:#3b1818;stroke-width:1.33333"
         d="m 142.66667,2234.6667 c -7.7,-0.4463 505,-0.8266 1139.33333,-0.8452 634.3333,-0.019 1146.7333,0.3877 1138.6667,0.9028 -17.8834,1.1418 -2258.27961,1.0852 -2278.00003,-0.057 z M 1.8556277,2125.3333 c 0,-9.9 0.2098978,-13.95 0.4664394,-9 0.2565416,4.95 0.2565416,13.05 0,18 -0.2565416,4.95 -0.4664394,0.9 -0.4664394,-9 z M 2557.8513,2120.6667 c 0,-9.5334 0.2148,-13.2584 0.472,-8.2779 0.2572,4.9805 0.2554,12.7805 0,17.3333 -0.2596,4.5528 -0.47,0.4779 -0.4677,-9.0554 z M 1101.9205,1873.4172 c -12.5565,-3.0057 -26.052,-14.2983 -31.5567,-26.4052 -2.3699,-5.2125 -2.886,-8.8447 -2.8908,-20.3453 -0.01,-11.9742 0.4957,-15.2542 3.4606,-22.6667 1.9065,-4.7667 26.0871,-55.1667 53.7345,-112 40.7461,-83.7595 50.0531,-103.8872 49.1333,-106.2571 -1.7313,-4.4605 -120.4451,-150.3433 -122.7757,-150.8741 -1.1217,-0.2555 -2.4661,0.2259 -2.9876,1.0696 -0.5215,0.8437 -0.6721,34.3527 -0.3347,74.4645 l 0.6134,72.9304 -32.2149,125.202 c -18.18395,70.6712 -33.69635,128.3335 -35.61623,132.3919 -4.65411,9.8379 -16.4024,22.2091 -24.91503,26.2359 -15.43796,7.3026 -31.40344,7.268 -45.98101,-0.1 -18.3798,-9.2898 -28.14731,-31.773 -24.33927,-56.0248 0.89569,-5.7043 12.83079,-54.4715 26.52243,-108.3715 l 24.89388,-98 0.71325,-125.3333 c 0.539,-94.7123 1.11784,-126.5312 2.36924,-130.2364 3.00136,-8.8866 10.0328,-17.4708 26.91751,-32.862 9.16666,-8.3558 16.85522,-16.3028 17.08569,-17.66 0.30223,-1.7797 -0.99869,-3.0582 -4.66667,-4.5864 -10.65632,-4.4396 -19.02322,-15.6599 -21.05586,-28.2366 -0.85708,-5.303 -2.03671,-6.4972 -23.65907,-23.952 -12.51636,-10.1039 -23.86787,-20.1923 -25.22557,-22.4187 -6.05184,-9.924 -1.17955,-22.0481 8.86042,-22.0481 6.60084,0 11.16799,2.6273 26.99227,15.5273 13.24351,10.7962 16.61016,12.5976 18.33308,9.8099 0.45191,-0.7312 7.70809,-32.0812 16.12485,-69.6666 8.41675,-37.5855 16.84466,-73.0262 18.72867,-78.7571 6.31012,-19.1945 18.66792,-33.1937 32.61782,-36.95 3.5312,-0.9508 43.0969,-1.2717 122.2097,-0.991 104.7101,0.3716 117.664,0.6469 123.429,2.6233 8.7357,2.9947 13.7681,6.7245 21.0265,15.5838 6.6136,8.0723 70.8269,100.3311 84.9242,122.0153 16.5492,25.4556 23.953,44.859 22.0404,57.7623 -1.2718,8.5813 -10.1258,25.7212 -69.6428,134.8179 -31.699,58.1055 -57.4444,106.5271 -57.2119,107.6036 0.5968,2.764 263.4571,213.9547 266.3005,213.9547 1.2852,0 4.1724,-2.55 6.416,-5.6667 9.6766,-13.4421 26.739,-28.0433 41.7061,-35.6901 15.0555,-7.6919 39.8077,-11.2784 56.3687,-8.1675 29.0953,5.4655 57.1153,28.1163 74.9754,60.6087 2.6926,4.8985 5.3598,9.1932 5.9271,9.5438 0.5673,0.3507 5.4633,-0.3045 10.8801,-1.4557 20.4874,-4.3545 38.1692,0.5199 51.6814,14.2468 12.1541,12.3473 21.4705,36.3777 21.521,55.5105 0.013,4.2552 0.4612,8.409 1,9.2306 0.5388,0.8214 4.6175,2.9565 9.0639,4.7444 10.3352,4.1557 16.8589,9.3389 22.642,17.9892 l 4.6088,6.894 8.9992,0.8746 c 23.0705,2.2426 37.922,8.712 51.7895,22.5602 8.0164,8.0053 21.8762,28.1202 21.8762,31.7493 0,0.5653 -144.9,1.0279 -322,1.0279 -177.1,0 -322,-0.3419 -322,-0.7598 0,-1.4777 8.5586,-13.3269 14.2471,-19.7248 7.6285,-8.5798 15.9787,-14.83 26.1166,-19.5482 10.9962,-5.1179 20.6447,-7.5484 42.1883,-10.6276 10.6652,-1.5244 18.327,-3.2527 18.9796,-4.2814 0.6019,-0.9486 1.1099,-3.2249 1.1291,-5.0582 0.052,-4.9955 3.5945,-15.7303 7.2477,-21.9642 7.586,-12.9444 24.9402,-23.9262 40.3559,-25.5374 l 8.1768,-0.8547 7.1128,-12.1477 c 4.588,-7.8359 10.8991,-15.9882 17.7795,-22.967 8.9092,-9.0365 12.8468,-11.8937 23.8985,-17.3408 7.2776,-3.5869 13.462,-7.2249 13.7432,-8.0844 0.6781,-2.0729 -244.1629,-198.323 -248.0626,-198.8324 -2.3355,-0.305 -3.5431,0.6887 -5.2908,4.3536 l -2.2645,4.7488 8.8538,10.3131 c 4.8696,5.6721 11.7351,13.3131 15.2568,16.9797 3.5216,3.6667 8.0821,10.2667 10.1343,14.6667 3.2355,6.9371 3.7249,9.5945 3.6837,20 -0.057,14.5007 -2.6028,22.778 -13.7468,44.7059 -26.0124,51.1838 -113.1401,217.6264 -116.5389,222.6274 -9.4035,13.8368 -19.6784,22.179 -32.7352,26.5775 -8.2634,2.7837 -19.7336,3.408 -27.6777,1.5064 z m -1.961,-688.4856 c 24.3194,-24.0542 43.9794,-44.4542 43.6889,-45.3333 -0.8263,-2.5 -11.3103,-3.3553 -42.677,-3.4815 -28.8797,-0.1163 -29.0353,-0.1015 -30.3346,2.8832 -1.6748,3.8471 -19.9701,84.3442 -19.9701,87.8659 0,1.8684 0.7505,2.5269 2.5378,2.2268 1.3959,-0.2343 22.4356,-20.1068 46.755,-44.1611 z M 1432,1167.2319 c -29.0521,-7.6299 -53.2361,-32.0261 -60.6467,-61.1787 -1.1109,-4.3707 -2.02,-13.3947 -2.02,-20.0532 0,-23.6906 7.6142,-41.9069 24.5419,-58.7154 16.9569,-16.8373 35.5688,-24.6404 58.6715,-24.5982 23.373,0.043 42.0996,7.8748 58.8292,24.6044 16.7109,16.7109 24.5846,35.5139 24.5846,58.7092 0,5.8667 -0.9164,14.5667 -2.0365,19.3333 -6.9279,29.482 -31.584,54.4507 -61.2041,61.98 -9.9502,2.5293 -30.9391,2.4873 -40.7199,-0.082 z M 1268.3333,1.4568776 c 4.95,-0.434616 13.05,-0.434616 18,0 6.4936,0.5701475 3.9873,0.7902109 -9,0.7902109 -12.9872,0 -15.4936,-0.2200634 -9,-0.7902109 z"
         id="path671" />
    </g>
  </g>
</svg>
